<?xml version="1.0" encoding="UTF-8"?>
<!-- Generated by Pixelmator Pro 3.6.18 -->
<svg width="100" height="100" viewBox="0 0 100 100" xmlns="http://www.w3.org/2000/svg">
    <path id="Path" fill="#ffffff" stroke="none" d="M 52.127998 72.915001 C 50.263 72.915001 48.397999 72.920998 46.532001 72.914001 C 43.557999 72.902 41.493999 70.963997 41.192001 68.016998 C 40.698002 63.202 40.691002 58.389 41.229 53.583 C 41.763 48.813995 42.751999 44.152 44.799999 39.772995 C 45.637001 37.984001 46.661999 36.313004 48.101002 34.933998 C 50.652 32.487999 53.693001 32.494003 56.244999 34.945 C 57.417 36.07 58.311001 37.401001 59.061001 38.831001 C 60.837002 42.219002 61.842999 45.860001 62.521 49.599998 C 63.644001 55.792 63.762001 62.021 63.119999 68.271004 C 62.849998 70.892998 60.723999 72.862999 58.080002 72.905998 C 56.096001 72.938004 54.112 72.912003 52.126999 72.912003 C 52.127998 72.913002 52.127998 72.914001 52.127998 72.915001 Z"/>
    <path id="path1" fill="#ffffff" stroke="none" d="M 84.051003 72.676003 C 82.206001 72.676003 80.360001 72.68 78.514999 72.675003 C 75.454002 72.667999 73.416 70.773003 73.106003 67.726997 C 72.504997 61.813 72.617996 55.918999 73.606003 50.055 C 74.32 45.813004 75.419998 41.686005 77.569 37.910004 C 78.398003 36.453003 79.387001 35.115997 80.734001 34.083 C 82.853996 32.459 85.314003 32.458 87.428001 34.083 C 88.872002 35.193001 89.902 36.645996 90.768997 38.220001 C 92.587997 41.520996 93.612999 45.094002 94.320999 48.768997 C 95.551003 55.149002 95.692001 61.573002 95.035004 68.024002 C 94.767998 70.643997 92.643997 72.623001 90.002998 72.666 C 88.018997 72.698997 86.035004 72.671997 84.050003 72.671997 C 84.051003 72.674004 84.051003 72.675003 84.051003 72.676003 Z"/>
    <path id="path2" fill="#ffffff" stroke="none" d="M 84.085999 76.925003 C 85.255997 76.925003 86.427002 76.914001 87.597 76.927002 C 91.281998 76.968002 93.693001 80.434998 92.425003 83.888 C 91.531998 86.320999 90.406998 88.633003 88.642998 90.571999 C 87.389 91.949997 85.928001 92.945999 83.958 92.910004 C 82.487999 92.883003 81.262001 92.253998 80.233002 91.275002 C 77.824997 88.985001 76.314003 86.128998 75.511002 82.957001 C 74.767998 80.024002 77.183998 77.055 80.220001 76.943001 C 81.507004 76.894997 82.797997 76.934998 84.086998 76.934998 C 84.084999 76.931999 84.085999 76.928001 84.085999 76.925003 Z"/>
    <path id="path3" fill="#ffffff" stroke="none" d="M 52.168999 77.163002 C 53.339001 77.163002 54.509998 77.152 55.68 77.165001 C 59.367001 77.207001 61.778 80.671997 60.508999 84.124001 C 59.615002 86.556 58.491001 88.869003 56.729 90.808998 C 55.460999 92.206001 53.976002 93.205002 51.985001 93.148003 C 50.542 93.106003 49.332001 92.480003 48.318001 91.514999 C 45.910999 89.223999 44.401001 86.367996 43.595001 83.196999 C 42.855999 80.292 45.245998 77.313004 48.242001 77.184998 C 49.549 77.128998 50.860001 77.176003 52.168999 77.176003 C 52.168999 77.171997 52.168999 77.167 52.168999 77.163002 Z"/>
    <path id="path4" fill="#ffffff" stroke="none" d="M 8.24 16.067001 C 9.444 17.229004 10.652 18.393997 11.856 19.556999 C 13.132 18.817001 14.174 18.854996 14.96 19.662003 C 15.726 20.448997 15.732 21.537003 14.893 22.831001 C 16.09 23.959 17.312 25.110001 18.646 26.367004 C 13.794 27.625999 9.141 28.833 4.368 30.070999 C 5.681 25.322998 6.966 20.671997 8.24 16.067001 Z"/>
    <path id="path5" fill="#ffffff" stroke="none" d="M 61.124001 24.561005 C 60.641998 24.319 60.105999 24.148003 59.689999 23.821999 C 58.613998 22.982002 57.601002 22.061996 56.544998 21.195999 C 55.491001 20.332001 55.255001 19.035995 56.005001 18.052002 C 56.764999 17.054001 58.087002 16.889999 59.159 17.737999 C 60.354 18.682999 61.521999 19.666 62.655998 20.683998 C 63.368999 21.324997 63.543999 22.164001 63.188 23.073997 C 62.870998 23.882996 62.061001 24.419998 61.124001 24.561005 Z"/>
    <path id="path6" fill="#ffffff" stroke="none" d="M 52.637001 18.446999 C 52.316002 18.359001 51.981998 18.301003 51.675999 18.176003 C 50.376999 17.645004 49.088001 17.087997 47.791 16.552002 C 46.806 16.143997 46.223 15.213997 46.34 14.201996 C 46.450001 13.249001 47.207001 12.468002 48.214001 12.330002 C 48.516998 12.289001 48.866001 12.306999 49.145 12.418999 C 50.648998 13.027 52.155998 13.633003 53.623001 14.321999 C 54.584999 14.774002 54.995998 15.809998 54.743999 16.768997 C 54.491001 17.733002 53.646999 18.388 52.637001 18.446999 Z"/>
    <path id="path7" fill="#ffffff" stroke="none" d="M 16.07 17.351997 C 16.084999 16.849998 16.370001 16.208 17.016001 15.846001 C 18.448 15.042999 19.892 14.254997 21.375 13.553001 C 22.462 13.038002 23.686001 13.563004 24.174999 14.616997 C 24.679001 15.703003 24.24 16.928001 23.149 17.497002 C 21.868999 18.165001 20.594 18.841995 19.313 19.507996 C 17.77 20.307999 16.045 19.289001 16.07 17.351997 Z"/>
    <path id="path8" fill="#ffffff" stroke="none" d="M 38.820999 10.292 C 40.233002 10.473999 41.650002 10.620003 43.054001 10.847 C 44.285999 11.045998 45.047001 12.138 44.848999 13.293999 C 44.634998 14.542999 43.577 15.289001 42.297001 15.129997 C 40.903999 14.957001 39.508999 14.801003 38.112999 14.666 C 36.901001 14.548996 36.042999 13.604996 36.09 12.386002 C 36.134998 11.216003 37.050999 10.369003 38.278999 10.362999 C 38.457001 10.362 38.633999 10.362999 38.812 10.362999 C 38.814999 10.338997 38.818001 10.316002 38.820999 10.292 Z"/>
    <path id="path9" fill="#ffffff" stroke="none" d="M 32.161999 10.482002 C 33.313 10.531998 34.290001 11.346001 34.421001 12.447998 C 34.562 13.629997 33.818001 14.651001 32.643002 14.877998 C 31.187 15.158997 29.729 15.434998 28.271999 15.710999 C 27.153999 15.923004 26.034 15.217003 25.754999 14.126999 C 25.464001 12.987 26.069 11.802002 27.23 11.513 C 28.858999 11.109001 30.517 10.82 32.161999 10.482002 Z"/>
    <path id="path10" fill="#ffffff" stroke="none" d="M 66.850998 30.294998 C 66.373001 30.051003 65.837997 29.876999 65.429001 29.545998 C 64.831001 29.061996 64.303001 28.486 63.784 27.914001 C 63.008999 27.056999 63.067001 25.764 63.880001 24.959 C 64.710999 24.136002 65.973 24.067001 66.834999 24.844002 C 67.438004 25.387001 68.017998 25.962997 68.555 26.570999 C 69.177002 27.274002 69.278999 28.106003 68.876999 28.951996 C 68.495003 29.759003 67.817001 30.150002 66.850998 30.294998 Z"/>
</svg>
