<?xml version="1.0" encoding="UTF-8"?>
<!-- Generated by Pixelmator Pro 3.6.18 -->
<svg width="128" height="128" viewBox="0 0 128 128" xmlns="http://www.w3.org/2000/svg">
    <g id="Group">
        <path id="Path" fill="#ffffff" stroke="none" d="M 102.587997 119.487 C 102.75367 119.756927 102.760933 120.095207 102.607002 120.372002 C 102.503609 120.801041 102.125168 121.107315 101.683998 121.119003 L 100.584 121.194 C 100.185806 121.197472 99.83078 120.943825 99.705002 120.566002 C 99.588692 120.509247 99.487564 120.425606 99.410004 120.321999 C 91.802002 111.122002 84.394997 101.735001 76.567001 92.714996 C 72.092003 102.114998 69.084999 112.267998 64.980003 121.796997 C 64.913345 121.990471 64.769356 122.147583 64.58242 122.230812 C 64.395485 122.314049 64.182373 122.315926 63.993999 122.236 C 63.600483 122.371292 63.168423 122.186806 62.993999 121.808998 C 58.266998 112.609001 54.594002 102.677002 49.493999 93.619003 C 42.332001 103.102997 35.609001 112.940002 28.686001 122.594002 C 28.561312 122.768341 28.382286 122.896362 28.177 122.958 C 28.214899 123.225044 28.132917 123.495193 27.952997 123.696129 C 27.773077 123.897072 27.513592 124.008286 27.243999 124 L 25.988001 124 C 25.688 124 25.530001 123.567001 25.518 123.114998 C 25.262112 122.823547 25.209808 122.405518 25.386 122.059998 C 33.683407 105.192162 40.89378 87.811035 46.973 70.023003 C 49.903999 61.248001 52.541 52.359001 54.612 43.339005 C 56.563999 34.820999 57.361 26.264999 58.768002 17.665009 C 58.80917 17.388367 58.989151 17.152084 59.244911 17.03891 C 59.500671 16.925735 59.796577 16.951431 60.028999 17.106995 C 60.277496 16.99115 60.561543 16.977509 60.82 17.069 C 61.061295 16.915146 61.362331 16.888245 61.62709 16.996841 C 61.891846 17.105453 62.087261 17.336014 62.151001 17.615005 C 64.235001 26.479004 65.651001 35.315002 68.384003 44.035995 C 71.146001 52.878667 74.330668 61.576668 77.938004 70.129997 C 85.147453 87.066391 93.379288 103.549088 102.587997 119.487 Z M 89.055 104.699997 C 92.331001 108.699997 95.583 112.716003 98.855003 116.708 C 94.938004 109.734001 91.154999 102.679001 87.568001 95.528999 C 87.70079 98.633888 88.199913 101.712227 89.055 104.699997 Z M 86.688004 93.732002 C 86.676445 93.711624 86.666092 93.69059 86.656998 93.668999 C 86.478699 93.723068 86.288071 93.72097 86.111 93.663002 C 83.555527 92.884193 80.949326 92.282768 78.310997 91.862999 C 79.961001 93.771665 81.594335 95.692665 83.210999 97.625999 C 84.227226 96.207245 85.392914 94.901756 86.688004 93.732002 Z M 87.688004 103.031998 C 87.000053 100.424255 86.649857 97.73896 86.646004 95.042 C 85.623039 96.077286 84.680626 97.189186 83.827003 98.367996 C 85.12367 99.922663 86.412336 101.477997 87.693001 103.033997 Z M 85.233002 90.792 C 84.053001 88.356003 82.878998 85.907997 81.742996 83.447998 C 81.142998 84.363998 80.550003 85.287003 79.998001 86.228996 C 81.699997 87.800003 83.481003 89.280998 85.237999 90.793999 Z M 84.248001 91.181 C 82.653 89.813004 81.053001 88.457001 79.514999 87.044998 C 78.974998 87.986 78.459999 88.940002 77.958 89.901001 C 80.078003 90.235001 82.175003 90.642998 84.252998 91.182999 Z M 80.725998 81.581001 C 80.679459 81.561829 80.636765 81.534386 80.599998 81.5 L 80.525002 81.425003 C 78.478996 80.998001 76.439003 80.539001 74.399002 80.069 C 75.658142 81.796875 77.063667 83.41317 78.599998 84.900002 C 79.280998 83.781998 79.984001 82.670998 80.731003 81.584999 Z M 79.986 79.541 C 78.661003 76.584999 77.362 73.615997 76.112999 70.627998 C 75.904999 70.127998 75.705002 69.627998 75.497002 69.121002 C 74.411003 69.779999 73.313004 70.427002 72.213997 71.060997 C 72.553332 71.350334 72.886665 71.658002 73.213997 71.984001 C 75.599998 74.391998 77.662003 77.091003 79.990997 79.544998 Z M 76.129997 89.362999 C 76.757998 88.132332 77.419332 86.916667 78.113998 85.716003 C 76.363388 84.049347 74.774315 82.220871 73.367996 80.254997 C 72.256493 81.040779 71.211014 81.916016 70.241997 82.872002 C 72.237999 85.005999 74.200666 87.169665 76.129997 89.362999 Z M 79.337997 80.210999 C 77.247002 77.982002 75.407997 75.533997 73.254997 73.362 C 72.628456 72.735939 71.96386 72.149155 71.264999 71.605003 C 68.684998 73.061002 66.082331 74.473335 63.457001 75.842003 L 63.457001 75.911003 C 63.612999 76.061996 63.764 76.210999 63.915001 76.362999 C 69 77.850998 74.158997 79.106003 79.337997 80.210999 Z M 74.887001 67.619003 C 74.158997 65.830002 73.443001 64.028 72.747002 62.227005 C 71.353287 62.718773 70.008194 63.33876 68.728996 64.079002 C 70.60743 65.53907 72.679993 66.730507 74.887001 67.619003 Z M 72.458 97.360001 C 73.292999 95.345001 74.171997 93.348999 75.119003 91.389999 C 71.672997 90.938004 68.202003 90.630997 64.737 90.260002 C 67.475868 92.440475 70.056053 94.813133 72.458 97.360001 Z M 71.421997 70.431 C 72.421997 69.860331 73.411664 69.280665 74.390999 68.692001 C 71.410004 67.901001 68.377998 67.286003 65.351997 66.657997 C 67.457817 67.777832 69.485748 69.038361 71.421997 70.431 Z M 69.613998 82.207001 C 70.543823 81.283638 71.538353 80.427795 72.589996 79.646004 C 70.148 79.056002 67.714668 78.417669 65.290001 77.731003 C 66.752001 79.206334 68.193334 80.698334 69.613998 82.207001 Z M 73.374001 89.306999 C 71.836998 87.581001 70.348999 85.879997 68.766998 84.191002 C 67.24115 85.762253 65.522087 87.133545 63.651001 88.272003 L 63.651001 88.283997 C 67.417 88.647003 70.161003 88.93 73.374001 89.306 Z M 69.137001 105.906998 C 70.084999 103.352997 71.045998 100.806999 72.069 98.299004 C 69.639534 95.708397 67.030037 93.292709 64.260002 91.07 C 65.613892 96.101555 67.241989 101.05529 69.137001 105.908997 Z M 71.400002 58.699997 C 70.484001 56.239334 69.601 53.768336 68.750999 51.287003 C 67.882744 52.090164 67.073013 52.954361 66.328003 53.873001 C 67.905243 55.597122 69.59996 57.209976 71.400002 58.699997 Z M 71.438004 67 C 70.184853 66.272034 68.982132 65.460533 67.837997 64.570999 C 67.091003 64.978996 66.337997 65.387001 65.571999 65.750999 C 67.529999 66.150002 69.5 66.552002 71.441002 67 Z M 67.176003 62.839005 C 68.255997 62.238998 69.334999 61.639 70.453003 61.125 C 68.034843 60.145203 65.542671 59.35907 63 58.774002 C 64.303871 60.216782 65.699791 61.573616 67.179001 62.835999 Z M 67.910004 48.752998 C 67.697337 48.112999 67.490336 47.472666 67.289001 46.832001 L 67.107002 46.757004 C 66.567001 46.856995 66.027 46.983002 65.487 47.121002 C 66.286997 47.677002 67.095665 48.220001 67.913002 48.75 Z M 70.400002 59.082001 C 68.745674 57.686523 67.181534 56.187515 65.717003 54.594002 C 65.002739 55.448883 64.201424 56.227074 63.326 56.916 C 65.732231 57.469887 68.096161 58.193703 70.400002 59.082001 Z M 66.544998 44.469002 C 66.544998 44.462006 66.539001 44.449997 66.539001 44.444 C 65.653999 43.276001 64.731003 42.134003 63.764 41.035004 C 63.292999 41.518997 62.828999 41.996002 62.32 42.429001 C 62.32 42.572998 62.327 42.716995 62.333 42.856003 C 63.764 43.333 65.164001 43.884995 66.544998 44.469002 Z M 65.728996 53.207001 C 66.464615 52.300163 67.256508 51.440468 68.099998 50.632996 C 66.286003 49.854996 64.408997 49.233002 62.532001 48.624001 C 62.532001 48.731003 62.537998 48.831001 62.543999 48.938004 C 63.498016 50.438232 64.562637 51.865189 65.728996 53.207001 Z M 68.271004 83.525002 C 66.721001 81.879667 65.147666 80.258001 63.550999 78.660004 C 63.563 79.012001 63.576 79.360001 63.582001 79.721001 C 63.670001 82.213 63.764334 84.709333 63.865002 87.209999 C 65.466377 86.149666 66.944221 84.913658 68.271004 83.525002 Z M 64.871002 117.182999 C 66.177002 113.918999 67.401001 110.598 68.625 107.282997 C 67.130997 102.976997 65.442001 98.751999 64.162003 94.389999 C 64.473 101.986 64.767998 109.587997 64.869003 117.182999 Z M 65.787003 41.977005 C 65.555 41.216995 65.322998 40.458 65.097 39.697998 C 64.871002 39.912003 64.639 40.130997 64.418999 40.363998 C 64.880997 40.890999 65.333 41.431 65.785004 41.977005 Z M 66.628998 49.039001 C 65.856003 48.518005 65.097 47.990005 64.344002 47.449997 C 63.953999 47.57 63.558998 47.701004 63.175999 47.849998 C 64.334999 48.222 65.484001 48.612 66.626999 49.039001 Z M 63.418999 74.793999 C 65.778999 73.556999 68.126999 72.293999 70.448997 70.983002 C 68.226997 69.370003 65.829002 68.101997 63.424999 66.608002 C 63.331001 66.639999 63.237 66.665001 63.143002 66.695999 C 63.237001 69.394669 63.329 72.094002 63.418999 74.793999 Z M 64.511002 46.415001 C 64.880997 46.302002 65.258003 46.208 65.627998 46.115005 C 64.580002 45.668999 63.528 45.255005 62.445999 44.877998 C 63.130001 45.400002 63.813999 45.912994 64.511002 46.415001 Z M 64.810997 38.714996 C 64.667 38.206001 64.523003 37.703995 64.377998 37.201996 C 63.631001 37.119995 62.877998 37.056999 62.131001 37.001999 C 62.137001 37.316002 62.150002 37.630005 62.161999 37.944 C 62.721001 38.514999 63.273998 39.091995 63.806999 39.688995 C 64.134003 39.352997 64.467003 39.020004 64.811996 38.712997 Z M 62.092999 36.058998 C 62.771 36.110001 63.443001 36.166 64.114998 36.229004 C 63.781667 34.992335 63.469668 33.751668 63.179001 32.507004 C 63.154968 32.516495 63.129723 32.522552 63.104 32.525002 C 62.727001 32.550995 62.351002 32.576004 61.973999 32.594002 C 62.018667 33.747999 62.058668 34.902331 62.094002 36.056999 Z M 63.078999 64.746002 C 64.187737 64.35788 65.262688 63.879272 66.292999 63.315002 C 65.115379 62.292931 63.990273 61.211884 62.922001 60.076004 C 62.973 61.630005 63.029999 63.186996 63.080002 64.744003 Z M 63.411999 46.768005 C 63.084999 46.535995 62.764999 46.296997 62.445 46.058998 C 62.457001 46.410004 62.470001 46.759003 62.476002 47.112999 C 62.791 46.992004 63.099998 46.873001 63.412998 46.765999 Z M 62.790001 56.145996 C 63.637115 55.487823 64.413307 54.743134 65.106003 53.923996 C 64.219063 52.90657 63.384644 51.844513 62.605999 50.742004 Z M 63.153999 40.359001 C 62.84 40.020004 62.527 39.675003 62.213001 39.335999 C 62.231998 39.964005 62.25 40.598 62.275002 41.224998 C 62.577999 40.946999 62.867001 40.652 63.154999 40.356995 Z M 62.972 31.589996 C 62.966 31.565002 62.959999 31.533997 62.952999 31.501999 C 62.488998 29.354996 62.105999 27.195999 61.710999 25.031006 C 61.792 27.240005 61.867001 29.442993 61.943001 31.653 C 62.289001 31.638 62.627998 31.613007 62.973 31.587997 Z M 62.946999 117.489998 C 62.916 116.580002 62.877998 115.676003 62.853001 114.772003 C 62.627 107.622665 62.413667 100.472997 62.213001 93.322998 C 61.233002 98.163002 59.702 102.864998 58.402 107.635002 C 59.890999 110.931 61.379002 114.238998 62.948002 117.484001 Z M 62.047001 87.410004 L 61.784 78.428001 C 60.207999 80.227999 58.661666 82.052333 57.145 83.901001 C 58.63097 85.260567 60.275913 86.435432 62.043999 87.400002 Z M 61.682999 75 C 61.601667 72.276001 61.518 69.554001 61.431999 66.834 C 61.231998 66.795998 61.023998 66.751999 60.823002 66.702003 C 58.537998 68.339996 56.178001 69.752998 54.069 71.523003 C 56.583 72.722 59.125 73.871002 61.68 74.994003 Z M 61 76.462997 C 61.157001 76.280998 61.313999 76.106003 61.471001 75.922997 C 58.73 74.724998 56 73.487999 53.299999 72.195 C 52.638004 72.792778 52.021309 73.438889 51.455002 74.127998 C 49.528 76.482002 47.82 79 45.881001 81.347 C 50.971001 79.890999 56.030998 78.290001 61 76.462997 Z M 61.373001 64.900002 L 61.202999 59.740005 C 60.123478 61.090576 58.966537 62.377396 57.737999 63.594002 C 58.906559 64.141075 60.123466 64.578293 61.373001 64.900002 Z M 61.099998 56.427002 C 61.033333 54.368337 60.962334 52.305003 60.887001 50.237 C 60.10022 51.590118 59.231956 52.894196 58.286999 54.141998 C 59.124763 55.01902 60.069901 55.786758 61.099998 56.427002 Z M 60.785999 47.287003 L 60.73 45.837006 C 60.321999 46.188995 59.908001 46.546005 59.493 46.897995 C 59.923 47.011002 60.348999 47.143005 60.782001 47.287003 Z M 60.623001 42.792999 L 60.623001 42.736 C 59.96109 42.271469 59.331936 41.761932 58.740002 41.210999 C 57.855333 42.378337 57.007999 43.578339 56.198002 44.811005 L 56.198002 44.822998 C 57.644001 44.085999 59.106998 43.389 60.618999 42.792999 Z M 60.578999 41.550003 C 60.548 40.714996 60.509998 39.880005 60.479 39.050003 C 60.078999 39.520996 59.694 40.003998 59.311001 40.487999 C 59.722 40.852997 60.136002 41.216995 60.575001 41.550003 Z M 60.422001 37.664001 C 60.416 37.451004 60.41 37.237999 60.396999 37.018005 C 59.536999 37.143005 58.676998 37.275002 57.817001 37.425995 C 57.716999 37.925995 57.617001 38.425995 57.509998 38.925995 C 57.893002 39.221001 58.257 39.535004 58.610001 39.854996 C 59.194 39.108002 59.799999 38.380005 60.417999 37.664001 Z M 60.360001 36.083 C 60.316002 34.933998 60.271999 33.783005 60.222 32.636002 C 59.622002 32.660995 58.966 32.667999 58.728001 32.667999 C 58.722248 32.716476 58.713562 32.764572 58.702 32.811996 C 58.483002 34.024002 58.250999 35.235001 58.018002 36.440002 C 58.792999 36.308998 59.570999 36.188995 60.355999 36.083 Z M 58.360001 46.622002 C 59.019333 46.069333 59.672 45.510666 60.318001 44.945999 C 59.27 45.391998 58.240002 45.887001 57.223 46.402 C 57.605999 46.471001 57.983002 46.540001 58.360001 46.622002 Z M 60.186001 31.699997 C 60.073332 29.107997 59.958332 26.515666 59.841 23.923004 C 59.557999 26.528 59.300999 29.139008 58.881001 31.722992 C 59.27 31.725998 59.722 31.720001 60.186001 31.699997 Z M 57.799999 106.292 C 59.355896 101.318283 60.642433 96.264282 61.653999 91.152 C 59.043606 93.56768 56.602196 96.159775 54.347 98.910004 C 55.541 101.351997 56.676998 103.819 57.799999 106.292 Z M 59.790001 47.959 C 59.389999 47.839996 58.999001 47.738998 58.597 47.645004 C 57.881001 48.235001 57.16 48.813004 56.424999 49.376999 C 57.536999 48.881668 58.658999 48.409002 59.791 47.959 Z M 57.612999 53.470001 C 58.778862 51.92981 59.819839 50.298958 60.726002 48.593002 C 58.811001 49.359001 56.91 50.137001 55.077 51.078995 C 55.971909 51.821724 56.818932 52.620316 57.612999 53.470001 Z M 60.255001 57.016998 C 59.335022 56.389786 58.483067 55.668213 57.713001 54.863998 C 56.366268 56.549286 54.913315 58.146866 53.362999 59.647003 C 55.597797 58.614487 57.900486 57.735779 60.255001 57.016998 Z M 55.716999 82.678001 C 57.029001 81.071332 58.364001 79.482999 59.722 77.913002 C 57.355 78.761002 54.964001 79.57 52.566002 80.323997 C 53.671642 81.031776 54.724712 81.818489 55.716999 82.678001 Z M 58.039001 40.583 C 57.794998 40.363998 57.539001 40.150002 57.292 39.949005 C 57.123001 40.727997 56.952999 41.512001 56.778 42.291 C 57.192001 41.712997 57.605999 41.141998 58.039001 40.583 Z M 56.839001 63.182999 C 58.228222 61.823936 59.526371 60.374802 60.724998 58.845001 C 58.229618 59.604492 55.797249 60.557381 53.450001 61.695 C 54.599998 62.132996 55.716999 62.660004 56.834 63.181 Z M 61.839001 88.348 C 59.923256 87.339722 58.148384 86.083961 56.560001 84.612999 C 55.103334 86.401665 53.668001 88.209333 52.254002 90.036003 C 55.428001 89.431999 58.636002 88.93 61.831001 88.346001 Z M 58.599998 65.980003 C 57.808998 65.672997 57.036999 65.328003 56.264999 64.970001 C 55.188835 65.934723 54.045635 66.821945 52.844002 67.625 C 54.756001 67.047997 56.683998 66.519997 58.599998 65.980003 Z M 57.419998 47.388 C 56.880001 47.287994 56.341 47.206001 55.793999 47.137001 L 55.605999 47.231003 C 55.443001 47.884003 55.279999 48.542999 55.105999 49.195 C 55.900002 48.604996 56.671001 48.009003 57.424 47.388 Z M 57.043999 54.188004 C 56.234264 53.319542 55.363731 52.509827 54.438999 51.764999 C 53.767 54.298335 53.061667 56.819667 52.323002 59.328995 C 54.013664 57.726776 55.592373 56.010406 57.048 54.192001 Z M 53.889999 98 C 56.115009 95.292252 58.529408 92.745857 61.115002 90.379997 C 57.681999 90.988998 54.235001 91.528 50.827 92.219002 C 51.900002 94.114998 52.917 96.047997 53.889999 98 Z M 53.143002 71.078003 C 54.984631 69.562271 56.915062 68.157768 58.924 66.872002 C 55.943001 67.699997 52.955002 68.523003 50.016998 69.521004 C 51.052999 70.048332 52.095 70.567332 53.143002 71.078003 Z M 55.126999 83.392998 C 54.092175 82.507027 52.988712 81.704506 51.827 80.992996 C 50.554073 83.050125 49.091358 84.983559 47.458 86.767998 C 48.237 87.922997 48.971001 89.097 49.687 90.282997 C 51.465666 87.961001 53.278999 85.664335 55.126999 83.392998 Z M 51.442001 72.699997 C 51.75 72.367996 52.063999 72.054001 52.383999 71.751999 C 51.234666 71.187998 50.092 70.614998 48.956001 70.032997 C 48.648998 70.932999 48.348 71.833 48.034 72.733002 C 47.111 75.413002 46.144001 78.074997 45.159 80.733002 C 47.305 78.099998 49.132 75.199997 51.442001 72.699997 Z M 55.353001 64.540001 C 54.029419 63.888084 52.649006 63.358551 51.229 62.958 C 50.664333 64.803998 50.076333 66.645332 49.465 68.482002 C 51.600452 67.447731 53.582024 66.122086 55.353001 64.542999 Z M 50.789001 80.875999 C 48.789001 81.485001 46.778 82.075996 44.77 82.646004 C 44.737999 82.683998 44.713001 82.714996 44.681999 82.746002 C 44.651947 82.778183 44.615501 82.803726 44.575001 82.820999 C 45.390999 83.857002 46.162998 84.911003 46.91 85.985001 C 48.343952 84.393768 49.641529 82.684746 50.789001 80.875999 Z M 47.921001 90.919998 C 47.355999 89.990997 46.778 89.073997 46.168999 88.169998 C 44.726002 89.689003 43.219002 91.152 41.719002 92.633003 C 43.758999 91.948997 45.830002 91.400002 47.921001 90.919998 Z M 43.188 98.991997 C 44.674666 96.951998 46.174666 94.924332 47.688 92.908997 C 45.063854 93.511147 42.484394 94.293671 39.967999 95.250999 C 39.806072 95.314926 39.628471 95.327835 39.459 95.288002 L 39.439999 95.325996 C 40.816093 96.411301 42.072533 97.640244 43.188 98.991997 Z M 45.630001 87.391998 C 45.002 86.482 44.349 85.588333 43.671001 84.710999 C 42.692333 87.266332 41.692333 89.808665 40.671001 92.337997 C 42.34 90.699997 44.028999 89.080002 45.630001 87.391998 Z M 39.089001 104.692001 C 40.263 103.046997 41.436001 101.408997 42.623001 99.769997 C 41.692902 98.647102 40.677197 97.597961 39.584999 96.632004 C 39.755646 99.328842 39.589024 102.03643 39.089001 104.692001 Z M 37.846001 106.43 C 38.507774 103.376259 38.794559 100.253197 38.700001 97.129997 C 35.604666 104.530001 32.329999 111.855337 28.875999 119.106003 C 31.875999 114.891998 34.852001 110.654999 37.846001 106.43 Z"/>
        <path id="path1" fill="#ffffff" stroke="none" d="M 73.971001 17.891006 C 75.163002 18.003998 75.891998 18.141998 75.891998 18.281006 C 75.891998 18.419998 75.156998 18.537994 73.952003 18.606995 C 72.952003 18.669998 71.628998 18.675995 70.192001 18.813995 C 70.404999 19.097 70.619003 19.328995 70.82 19.593002 L 71.730003 20.785004 L 70.348999 20.464996 C 68.710999 20.082001 67.355003 19.654999 66.388 19.378998 C 65.388 19.121994 64.780998 18.940002 64.800003 18.807999 C 64.819 18.675995 65.445999 18.632004 66.482002 18.714005 C 67.217003 18.789001 68.133003 18.959 69.143997 19.166 C 69.143997 19.158997 69.137001 19.153 69.130997 19.147003 C 69.024002 18.990005 68.917999 18.839005 68.817001 18.688995 L 68.317001 17.966995 L 69.170998 17.867004 C 70.766861 17.695374 72.376938 17.70343 73.971001 17.891006 Z"/>
        <path id="path2" fill="#ffffff" stroke="none" d="M 73.223999 9.391998 C 73.387001 9.623993 71.008003 11.591995 67.869003 13.804993 L 67.317001 14.194 L 67.071999 13.535004 L 67 13.322006 C 66.850716 12.90332 66.67366 12.495087 66.470001 12.100006 C 65.220001 14.139999 64.253998 15.451996 64.07 15.356995 C 63.855999 15.244003 64.723 13.367996 66.022003 10.893997 L 66.391998 10.194 L 66.875999 10.822006 C 67.267929 11.352081 67.586472 11.932663 67.822998 12.548004 C 70.719002 10.546997 73.067001 9.166 73.223999 9.391998 Z"/>
        <path id="path3" fill="#ffffff" stroke="none" d="M 71.321999 28.606003 C 72.061996 29.748993 72.452003 30.490005 72.332001 30.576996 C 72.211998 30.664001 71.611 30.076996 70.732002 29.070999 C 69.546997 27.769196 68.432091 26.405258 67.391998 24.985001 C 67.160004 24.632996 66.933998 24.294006 66.713997 23.955002 C 66.701538 23.970245 66.691124 23.987061 66.682999 24.005005 C 66.613998 24.112 66.544998 24.212006 66.475998 24.313004 C 66.431999 24.406998 66.388 24.501007 66.337997 24.589005 L 65.891998 25.404999 L 65.509003 24.705002 C 65.081879 23.883148 64.755196 23.012894 64.536003 22.113007 C 64.353996 21.479004 64.291 21.096008 64.386002 21.057999 C 64.481003 21.020004 64.706001 21.328003 65.026001 21.899002 C 65.264 22.313995 65.526001 22.878006 65.853996 23.487 C 65.992859 23.28299 66.108887 23.064346 66.199997 22.834991 L 66.507004 21.834991 L 67.115997 22.727005 C 67.480003 23.248001 67.862999 23.800003 68.251999 24.371002 C 69.439003 26.007996 70.569 27.483002 71.321999 28.606003 Z"/>
        <path id="path4" fill="#ffffff" stroke="none" d="M 61.077999 9.184998 L 61.259998 10.490997 L 60.23 9.623993 C 60.156898 9.570526 60.080032 9.5224 60 9.479996 C 60.521 12.487 60.59 14.727997 60.358002 14.779999 C 60.057999 14.843002 59.458 11.968002 58.743999 8.528 L 58.467999 7.166 L 59.636002 8.026001 L 59.73 8.095001 C 59.803078 8.155151 59.880638 8.209641 59.962002 8.257996 C 59.779999 5.772003 59.943001 4.020996 60.151001 4.001999 C 60.424999 3.981003 60.669998 6.246994 61.077999 9.184998 Z"/>
        <path id="path5" fill="#ffffff" stroke="none" d="M 53.438 10.477997 C 56.012001 12.669006 58.221001 14.207001 58.051998 14.464005 C 57.919998 14.684006 55.077 13.322006 52.125999 10.742004 L 52.101002 10.722992 L 51.466999 10.188995 L 52.301998 9.824997 C 52.528 9.725006 52.748001 9.630997 52.966999 9.537003 C 50.902 8.369003 49.534 7.427002 49.633999 7.244995 C 49.747002 7.031998 51.734001 7.860992 54.380001 9.154007 L 55.308998 9.612 L 54.278999 10.089005 C 54.041 10.195999 53.796001 10.315002 53.544998 10.427994 C 53.507565 10.440582 53.471672 10.457367 53.438 10.477997 Z"/>
        <path id="path6" fill="#ffffff" stroke="none" d="M 56.799999 19.436005 C 56.894001 19.511002 56.636002 20.035995 56.159 20.886002 C 55.701 21.746002 55.085999 22.985992 54.175999 24.386002 L 53.647999 25.186005 L 53.297001 24.257004 C 53.064129 23.594894 52.791637 22.947388 52.480999 22.317993 C 51.345745 23.505325 50.296745 24.772217 49.341999 26.108994 C 48.431999 27.283005 47.754002 27.886002 47.641998 27.809006 C 47.529999 27.731995 48 26.929993 48.73 25.688004 C 49.656162 23.965179 50.85384 22.402832 52.277 21.061005 L 52.748001 20.660995 L 53.055 21.182007 L 53.150002 21.345001 C 53.463898 21.868469 53.722618 22.423111 53.922001 23 C 54.587002 22.039001 55.152 21.166992 55.634998 20.552002 C 56.276001 19.768005 56.715 19.360001 56.799999 19.436005 Z"/>
        <path id="path7" fill="#ffffff" stroke="none" d="M 56.276001 16.453995 C 56.269001 16.597992 55.576 16.710999 54.476002 16.848999 C 53.375999 17.013 51.852001 17.264008 50.169998 17.649002 L 49.555 17.787003 L 49.542 16.996002 C 49.542 16.882996 49.567001 16.796005 49.567001 16.662994 C 49.561001 16.505997 49.535999 16.324005 49.511002 16.117004 C 46.743 16.776001 44.671001 17.108994 44.611 16.869995 C 44.550999 16.630997 46.82 15.802994 49.870998 14.955994 L 50.529999 14.774002 L 50.516998 15.514008 C 50.511002 15.740005 50.574001 16.059998 50.612 16.481003 C 51.869259 16.238068 53.147522 16.120499 54.428001 16.130005 C 55.578999 16.177994 56.276001 16.322006 56.276001 16.453995 Z"/>
    </g>
</svg>
