<?xml version="1.0" encoding="UTF-8"?>
<!-- Generated by Pixelmator Pro 3.6.18 -->
<svg width="100" height="95" viewBox="0 0 100 95" xmlns="http://www.w3.org/2000/svg">
    <path id="Path" fill="#000000" stroke="none" d="M 94.5 30.800003 C 94.300003 30.599998 94.099998 30.5 93.800003 30.5 L 80.400002 31.199997 C 80.300003 31.199997 80.199997 31.199997 80 31.199997 L 64.300003 10.900002 C 63.400002 9.699997 62 9.099998 60.5 9.099998 C 58.900002 9.099998 57.5 9.800003 57.400002 9.800003 L 29.4 24.599998 C 28.700001 24.900002 27.9 25.099998 27 25.300003 C 27 25 27 24.800003 26.799999 24.599998 C 26.6 24.400002 26.299999 24.300003 26.1 24.300003 L 24.4 24.300003 C 24 24.300003 23.6 24.599998 23.5 25 L 23.299999 25.800003 C 22.5 25.900002 21.700001 25.900002 21 25.900002 C 19 25.900002 17.9 25.699997 17.5 25.5 C 17.299999 25.400002 17.200001 25.400002 17 25.300003 C 17.200001 25.199997 17.299999 25 17.299999 24.699997 C 17.299999 24.400002 17.299999 24.199997 17.1 24 L 16.4 23.199997 C 16.1 22.800003 15.5 22.699997 15.1 23 L 14.2 23.599998 C 12.9 22.5 12.4 21.5 12.2 20.900002 C 12.2 20.800003 12.1 20.699997 12.1 20.599998 C 12.5 20 12.4 19.400002 12.3 19.099998 C 12 18.300003 11.1 17.900002 10 17.900002 C 8.9 17.900002 7.3 18.400002 6.7 19.699997 C 5.7 21.900002 6.3 25.699997 6.4 26.099998 C 6.4 26.099998 6.4 26.199997 6.4 26.199997 C 6.6 26.800003 8.1 32.099998 11.2 33.5 C 12.6 34.099998 14 34.300003 15.3 34.5 C 16.200001 34.599998 16.9 34.699997 17.5 34.900002 C 16.9 35.099998 16 35.300003 15.2 35.400002 C 13.8 35.699997 12.1 36.099998 10.1 36.599998 C 9.7 36.699997 9.4 37.099998 9.4 37.5 L 9.4 39 C 9.4 39.300003 9.5 39.5 9.7 39.699997 C 9.8 40 10 40 10.2 40 C 10.2 40 10.3 40 10.3 40 L 21.9 38.199997 C 22.200001 38.199997 22.5 38.099998 22.799999 38.199997 L 23.4 38.300003 C 24 38.800003 24.5 39.099998 25.299999 39.099998 C 25.9 39.099998 26.5 38.900002 27.200001 38.599998 C 28.1 38.400002 29.1 38.099998 29.799999 37.300003 C 30.4 36.699997 30.6 35.900002 30.6 35 C 31 34.400002 31.6 33.900002 32.200001 33.5 C 33.900002 32.5 34.5 32.300003 34.700001 32.199997 C 39.200001 31.099998 42.799999 30.400002 44.700001 30.300003 C 44.799999 30.300003 44.799999 30.300003 44.900002 30.300003 C 43.599998 31.5 43.200001 33.199997 43.099998 33.300003 L 35.099998 64 C 34.900002 64.599998 34.5 65.300003 34.099998 66 C 34.099998 66 34.099998 66 34.099998 66 C 33.799999 66 33.5 66.099998 33.400002 66.300003 L 32.299999 67.599998 C 32 67.900002 32 68.400002 32.200001 68.800003 L 32.299999 68.900002 C 30.799999 71 29 72.800003 28 73.300003 C 28 73.199997 27.9 73.199997 27.9 73.099998 C 27.700001 72.900002 27.5 72.800003 27.200001 72.800003 L 26.1 72.699997 C 25.6 72.699997 25.200001 73 25.1 73.5 L 25 74.300003 C 24.299999 74.5 23.6 74.5 23 74.5 C 22.299999 74.5 21.700001 74.400002 21.299999 74.300003 C 21 73.099998 20 73 19.700001 73 C 18.700001 73 17.9 73.800003 17.4 74.5 C 16.700001 75.5 16.6 76.699997 17 77.599998 C 18 79.800003 21.1 82 21.5 82.199997 C 21.5 82.199997 21.6 82.199997 21.6 82.300003 C 21.700001 82.400002 25.1 84 28 84.099998 C 28 84.099998 28 84.099998 28 84.099998 C 28.799999 84.099998 29.6 84 30.200001 83.699997 C 31.700001 83.099998 32.700001 82.199997 33.700001 81.400002 C 34.400002 80.800003 35 80.300003 35.5 80.099998 C 35.200001 80.599998 34.799999 81.400002 34.299999 82.199997 C 33.599998 83.400002 32.700001 84.900002 31.799999 86.800003 C 31.6 87.199997 31.700001 87.599998 32 87.900002 L 33.099998 88.900002 C 33.299999 89.099998 33.5 89.099998 33.700001 89.099998 C 33.700001 89.099998 33.799999 89.099998 33.799999 89.099998 C 34.099998 89.099998 34.299999 88.900002 34.5 88.699997 L 41 78.900002 C 41.200001 78.599998 41.400002 78.400002 41.599998 78.199997 L 43.900002 76.300003 C 43.900002 76.300003 43.900002 76.300003 44 76.199997 C 44.200001 76 45.799999 74.300003 45.700001 72.300003 C 45.599998 71.400002 45.200001 70.5 44.299999 69.900002 C 44.099998 69.800003 43.900002 69.699997 43.700001 69.599998 C 43.599998 69 43.599998 68.400002 43.700001 67.800003 C 44.099998 65.900002 44.299999 65.300003 44.400002 65.099998 C 46.599998 61 48.599998 57.900002 49.700001 56.400002 C 51.200001 54.599998 55.200001 48.400002 56.400002 45.099998 C 58.299999 46.199997 62.400002 48.400002 67.900002 50.199997 C 69.900002 55.099998 72.699997 58.199997 74.5 59.900002 C 74.5 59.900002 74.5 59.900002 74.5 59.900002 C 75.099998 60.5 75.699997 61.099998 76.300003 61.299999 C 76.900002 61.700001 83.599998 65.699997 88.900002 65.699997 C 91.400002 65.699997 93.300003 64.900002 94.5 63.200001 C 94.599998 63 94.699997 62.799999 94.699997 62.700001 L 94.699997 31.5 C 94.800003 31.199997 94.699997 31 94.5 30.800003 Z M 74.400002 27 C 74.099998 27.199997 73.699997 27.5 73.300003 27.800003 L 69.699997 26.400002 L 71.099998 22.900002 L 74.400002 27 Z M 59.299999 40.300003 L 61.599998 39.300003 C 62.200001 40.599998 62.900002 42 63.700001 43.400002 L 61.299999 44.5 L 59.299999 40.300003 Z M 50.5 52.300003 L 50.200001 51.599998 L 51.200001 51.099998 C 51 51.5 50.700001 51.900002 50.5 52.300003 Z M 52.900002 48.300003 L 49.400002 49.900002 L 47.5 45.699997 L 51.700001 43.800003 L 53.400002 47.5 C 53.200001 47.699997 53.099998 48 52.900002 48.300003 Z M 39.099998 56.699997 L 42.599998 55.099998 L 44.5 59.300003 L 40.299999 61.200001 L 38.799999 57.800003 L 39.099998 56.699997 Z M 41.599998 48.400002 L 45.799999 46.5 L 47.700001 50.699997 L 43.5 52.599998 L 41.599998 48.400002 Z M 61.299999 25 L 59.900002 28.5 C 59.5 27 59.400002 26.099998 59.400002 26.099998 C 59.299999 25.800003 59.099998 25.5 58.799999 25.400002 C 58.700001 25.400002 58.599998 25.300003 58.5 25.300003 C 58.299999 25.300003 58.099998 25.400002 57.900002 25.5 C 57.5 25.800003 56.799999 26.099998 55.799999 26.400002 L 57.099998 23.300003 L 61.299999 25 Z M 57.700001 21.5 L 59.400002 17.199997 L 63.700001 18.900002 L 62 23.199997 L 57.700001 21.5 Z M 57.700001 27.599998 C 57.799999 28.199997 58 28.900002 58.200001 29.699997 L 51.900002 29.199997 C 54.099998 28.800003 56.299999 28.199997 57.700001 27.599998 Z M 58.200001 31.599998 L 55.900002 32.599998 L 55.299999 31.300003 L 58.200001 31.599998 Z M 53.5 26.800003 L 49.200001 25 L 50.900002 20.699997 L 55.200001 22.400002 L 53.5 26.800003 Z M 50.5 27.599998 C 49.599998 27.800003 48.799999 27.900002 48 28 L 48.5 26.699997 L 50.5 27.599998 Z M 48.700001 30.900002 L 53.099998 31.300003 L 54.099998 33.5 L 49.900002 35.400002 L 48 31.199997 L 48.700001 30.900002 Z M 50.900002 42.099998 L 46.700001 44 L 44.799999 39.800003 L 49 37.900002 L 50.900002 42.099998 Z M 52.599998 41.300003 L 50.700001 37.099998 L 54.900002 35.199997 L 56.799999 39.400002 L 52.599998 41.300003 Z M 56.599998 34.400002 L 59.200001 33.199997 C 59.599998 34.5 60.200001 36 60.799999 37.5 L 58.5 38.5 L 56.599998 34.400002 Z M 63.099998 37.699997 L 63 37.599998 C 62.900002 37.300003 62.700001 37 62.599998 36.699997 C 62.200001 35.699997 61.799999 34.599998 61.5 33.699997 C 61.299999 33 61.099998 32.400002 60.900002 31.800003 C 60.900002 31.800003 60.900002 31.699997 60.900002 31.699997 L 63.099998 32.599998 L 64.900002 33.300003 L 64.199997 35 L 63.099998 37.699997 Z M 61.299999 29.900002 L 63 25.599998 L 67.300003 27.300003 L 65.599998 31.599998 L 61.299999 29.900002 Z M 66.199997 35.099998 L 66.599998 34.099998 L 67.599998 34.5 L 68.699997 35 C 67.400002 35.5 66.300003 35.900002 65.5 36.699997 L 66.199997 35.099998 Z M 68.099998 32.699997 L 67.300003 32.400002 L 69 28.099998 L 71.800003 29.199997 C 71.099998 30.099998 70.400002 31.199997 70.099998 32.5 C 70 32.800003 70 33.099998 69.900002 33.400002 L 68.099998 32.699997 Z M 66.599998 16.900002 L 67.900002 18.599998 L 66.199997 17.900002 L 66.599998 16.900002 Z M 69.699997 21.400002 L 68 25.699997 L 63.700001 24 L 65.400002 19.699997 L 69.699997 21.400002 Z M 61.799999 11.300003 C 62.200001 11.5 62.5 11.800003 62.799999 12.099998 L 65.199997 15.199997 L 64.400002 17.199997 L 60.099998 15.5 L 61.799999 11.300003 Z M 58.299999 11.5 C 58.299999 11.5 59 11.099998 59.900002 11 L 58.400002 14.699997 L 54.799999 13.199997 L 58.299999 11.5 Z M 53.400002 14.699997 L 57.700001 16.400002 L 56 20.800003 L 51.700001 19 L 53.400002 14.699997 Z M 51.200001 15.199997 L 49.900002 18.300003 L 47.299999 17.199997 L 51.200001 15.199997 Z M 44.799999 18.599998 L 45.200001 18.400002 L 49.200001 20 L 47.5 24.300003 L 43.200001 22.599998 L 44.799999 18.599998 Z M 42.299999 20 L 41.5 21.900002 L 39.900002 21.199997 L 42.299999 20 Z M 29.799999 33.199997 C 29.6 33.099998 29.5 33 29.299999 32.900002 L 29.799999 33.199997 C 29.799999 33.199997 29.799999 33.199997 29.799999 33.199997 Z M 11.7 23.800003 L 10.8 23.400002 C 10.8 23.099998 10.8 22.800003 10.8 22.400002 C 11 22.900002 11.3 23.300003 11.7 23.800003 Z M 25.9 32.5 C 25.799999 32.5 25.799999 32.5 25.700001 32.5 L 25.9 31.599998 L 28.9 32.800003 C 28.9 32.800003 29 32.800003 29 32.800003 L 29.1 32.800003 C 28.299999 32.599998 27.200001 32.5 25.9 32.5 Z M 22.9 27.800003 L 22.799999 28.300003 L 22.5 28.199997 C 22.5 28.199997 22.4 28.199997 22.4 28.199997 L 21.6 27.900002 C 22 27.800003 22.4 27.800003 22.9 27.800003 Z M 22.299999 30.199997 L 22 31.900002 L 18.700001 31 C 18.700001 31 18.700001 31 18.700001 31 L 19.5 29 L 22.299999 30.199997 Z M 17.799999 28.300003 L 16.799999 30.699997 C 16.200001 30.599998 15.4 30.400002 14.6 30.199997 C 13.6 30 12.8 29 12.7 28.599998 C 12.9 28.300003 13.6 27.699997 14.5 27 L 17.799999 28.300003 Z M 31.9 28.199997 C 31.9 28.199997 31.9 28.300003 31.9 28.300003 L 30.6 31.5 L 26.299999 29.800003 L 27.299999 27.300003 C 28.4 27.099998 29.299999 26.800003 30.200001 26.400002 L 31.700001 27 C 31.700001 27 31.799999 27 31.799999 27 L 32.299999 27.199997 L 31.9 28.199997 Z M 33.299999 24.699997 L 33 25.5 L 32.400002 25.199997 L 33.299999 24.699997 Z M 34.299999 30.400002 C 33.900002 30.5 33.400002 30.699997 32.700001 31.099998 L 34 27.900002 L 38.099998 29.599998 C 36.599998 29.900002 35.200001 30.199997 34.299999 30.400002 Z M 34.700001 26.199997 L 35.900002 23.300003 L 37.700001 22.400002 L 40.799999 23.699997 L 39 27.900002 L 34.700001 26.199997 Z M 44.700001 28.400002 C 43.799999 28.5 42.700001 28.599998 41.400002 28.800003 L 40.700001 28.5 L 42.400002 24.199997 L 46.700001 25.900002 L 45.799999 28.199997 C 45.400002 28.400002 45 28.400002 44.700001 28.400002 Z M 45 33.800003 C 45 33.800003 45.200001 33 45.799999 32.199997 L 46.299999 32 L 48.200001 36.199997 L 44 38.099998 L 43.900002 37.900002 L 45 33.800003 Z M 43.200001 40.800003 L 45 44.800003 L 41.799999 46.300003 L 43.200001 40.800003 Z M 40.599998 50.699997 L 41.799999 53.300003 L 39.700001 54.300003 L 40.599998 50.699997 Z M 38 60.699997 L 38.599998 62 L 37.599998 62.5 L 38 60.699997 Z M 36.900002 64.800003 L 38.799999 64 C 38.799999 64 38.900002 64 38.900002 63.900002 L 39.400002 63.700001 L 39.799999 64.699997 C 39.799999 64.699997 39.799999 64.800003 39.900002 64.800003 L 41.299999 67.900002 L 37.400002 69.699997 L 36.400002 68.300003 L 35.799999 67 C 36.299999 66.300003 36.599998 65.5 36.900002 64.800003 Z M 36.299999 74.5 L 33.5 76.300003 C 33.5 76.300003 33.400002 76.300003 33.400002 76.400002 C 33.400002 76.400002 33.299999 76.5 33 76.699997 L 31.9 74.300003 L 35.099998 72.900002 L 36.299999 74.5 Z M 30.200001 78.699997 C 29.799999 79 29.200001 79.199997 28.6 79.199997 C 28.1 79.199997 27.9 79.099998 27.799999 79 C 27.700001 78.599998 27.799999 77.400002 27.9 76 L 30.299999 74.900002 L 31.6 77.699997 C 31.1 78.099998 30.700001 78.400002 30.200001 78.699997 Z M 24.299999 77.699997 L 24.4 77.900002 C 24.299999 77.900002 24.200001 77.800003 24 77.800003 L 24.299999 77.699997 Z M 41.799999 69.699997 C 41.799999 69.800003 41.799999 69.900002 41.799999 69.900002 C 40.799999 70.400002 39.900002 71.300003 39.200001 72.099998 L 38.5 71.199997 L 41 70 C 41 70 41.099998 70 41.099998 69.900002 L 41.799999 69.699997 Z M 33.5 70.5 L 34 71.199997 L 33.299999 71.5 C 33.299999 71.5 33.200001 71.5 33.200001 71.599998 L 32.200001 72.099998 C 32.599998 71.5 33.099998 71 33.5 70.5 Z M 22.1 76.599998 C 22 76.5 22 76.5 21.9 76.400002 C 22.1 76.400002 22.200001 76.400002 22.4 76.5 L 22.1 76.599998 Z M 42.799999 64.199997 C 42.599998 64.5 42.5 65 42.299999 65.599998 L 41.099998 62.900002 L 44.5 61.400002 C 43.799999 62.5 43.200001 63.599998 42.799999 64.199997 Z M 48.299999 55.300003 C 47.700001 56.099998 46.900002 57.199997 46.099998 58.5 L 44.200001 54.300003 L 48.400002 52.400002 L 49.200001 54.099998 C 48.900002 54.5 48.599998 55 48.299999 55.300003 Z M 56.400002 42.900002 C 56.099998 42.699997 55.799999 42.699997 55.5 42.800003 C 55.200001 43 55 43.300003 55 43.599998 C 55 44 54.799999 44.599998 54.400002 45.300003 L 53.400002 43 L 57.599998 41.099998 L 59.099998 44.400002 C 57.400002 43.5 56.5 42.900002 56.400002 42.900002 Z M 62.400002 46 L 64.599998 45 C 65.099998 45.800003 65.599998 46.699997 66.199997 47.5 C 64.800003 47.099998 63.599998 46.5 62.400002 46 Z M 76.300003 44.800003 C 75.5 45.699997 74.800003 46.800003 74 47.900002 C 73.599998 48.5 73.300003 49 72.900002 49.599998 C 72.599998 50.099998 72.199997 50.699997 71.900002 51.300003 C 71.699997 51.699997 71.400002 52.199997 71.199997 52.599998 C 70.900002 52.099998 70.599998 51.5 70.300003 50.900002 C 70.199997 50.699997 70.099998 50.5 70.099998 50.400002 C 69.900002 50 69.699997 49.599998 69.599998 49.099998 C 69.599998 49 69.5 48.900002 69.5 48.900002 C 69.400002 48.800003 69.400002 48.800003 69.300003 48.699997 C 69.099998 48.400002 68.900002 48.099998 68.699997 47.900002 C 68.400002 47.5 68.199997 47.199997 67.900002 46.800003 C 67.800003 46.699997 67.800003 46.599998 67.699997 46.5 C 67.5 46.199997 67.300003 45.900002 67.099998 45.5 L 67.099998 45.5 C 66.599998 44.800003 66.199997 44 65.800003 43.300003 C 65.800003 42.400002 65.800003 41.599998 65.900002 40.900002 C 66 40.300003 66 39.900002 66.199997 39.5 C 66.199997 39.300003 66.300003 39.199997 66.400002 39.099998 C 67 37.699997 68.199997 37.300003 69.900002 36.699997 C 69.900002 36.699997 70 36.699997 70 36.699997 C 70.199997 36.599998 70.400002 36.599998 70.599998 36.5 L 70.699997 36.699997 L 72.099998 38.199997 L 73 39.199997 L 73.199997 39.400002 L 74.599998 40.800003 L 77.5 43.800003 C 77 43.900002 76.699997 44.300003 76.300003 44.800003 Z M 78.599998 42.099998 L 76.300003 39.699997 L 74.900002 38.300003 L 73.699997 37 L 71.599998 34.800003 C 71.599998 34.699997 71.599998 34.699997 71.599998 34.599998 C 71.599998 34.300003 71.599998 33.900002 71.699997 33.599998 C 71.800003 33.099998 71.900002 32.699997 72 32.300003 C 72.199997 31.699997 72.5 31.099998 72.900002 30.599998 C 73.800003 29.400002 74.900002 28.699997 75.5 28.300003 L 75.699997 28.599998 L 75.800003 28.699997 L 77.599998 31.099998 L 78.099998 31.699997 L 78.900002 32.699997 C 78.900002 32.699997 78.900002 32.699997 78.900002 32.699997 L 78.900002 32.699997 C 78.900002 32.699997 79 32.800003 79 32.800003 C 79 32.800003 79.099998 32.900002 79.099998 32.900002 C 79.300003 33.099998 79.400002 33.300003 79.599998 33.5 C 80.800003 34.900002 82.099998 36.400002 83.300003 37.699997 C 82.400002 38.599998 80.699997 40 78.599998 42.099998 Z"/>
</svg>
