<?xml version="1.0" encoding="UTF-8"?>
<!-- Generated by Pixelmator Pro 3.6.18 -->
<svg width="100" height="85" viewBox="0 0 100 85" xmlns="http://www.w3.org/2000/svg">
    <g id="Group">
        <path id="Path" fill="#810000" stroke="none" d="M 91.143997 44.109001 C 89.745003 42.337006 88.347 40.473 86.947998 38.701004 C 84.244003 35.344002 81.353996 32.173996 78.089996 29.283997 C 76.132004 27.512001 74.081001 25.927002 71.843002 24.528999 C 69.232002 22.944 66.528 21.824997 63.358002 21.732002 C 61.027 21.639 58.882 21.917999 56.737999 22.757996 C 55.432999 23.317001 54.220001 23.970001 52.915001 24.623001 C 52.262001 24.996002 51.610001 25.181999 50.863998 25.181999 C 50.118 25.181999 49.465 24.902 48.813 24.528999 C 47.881001 24.063004 47.041 23.502998 46.109001 22.944 C 44.431 22.012001 42.751999 21.265999 40.793999 21.079002 C 39.862 20.986 38.929001 20.986 38.09 21.264999 C 37.437 21.544998 36.785 21.823997 36.132 22.196999 C 33.894001 23.501999 31.75 25.181 29.698 26.765999 C 26.993999 28.910995 24.382999 31.055 21.865999 33.292999 C 18.136 36.556 14.5 39.912994 10.77 43.177002 C 9.931 43.923004 9.092 44.668999 8.252 45.507996 C 7.6 46.067001 6.948 46.720001 6.388 47.278999 C 5.176 48.397995 5.269 50.263 6.574 51.287994 C 6.854 51.473999 7.04 51.660995 7.32 51.847 C 9.278 53.246002 11.236 54.831001 13.101 56.509003 C 14.22 57.535004 15.246 58.747002 16.177999 59.959 C 17.483 61.730999 18.975 63.501999 20.559999 64.994003 C 21.959 66.299004 23.450001 67.417999 25.129 68.164001 C 26.714001 68.910004 28.392 69.282997 30.164 69.282997 C 31.749001 69.282997 33.241001 68.910004 34.639999 68.257004 C 36.598 67.417999 38.556 66.391998 40.514 65.459999 C 43.125 64.060997 45.828999 62.756001 48.438999 61.356998 C 53.007999 59.026001 57.669998 56.695 62.424999 54.643997 C 67.459999 52.499001 72.587997 50.541 77.996002 49.236 C 81.072998 48.490005 84.242996 48.024002 87.693001 48.024002 C 88.066002 48.024002 88.625 48.024002 89.092003 48.117004 C 89.651001 48.117004 90.117996 48.024002 90.584 47.651001 C 91.704002 47.186005 92.263 45.600998 91.143997 44.109001 Z M 40.793999 48.584999 C 38.648998 49.611 36.411999 50.449997 34.081001 51.102997 C 32.776001 51.475998 31.469999 51.662003 30.072001 51.755997 C 28.299999 51.848999 26.622 51.475998 25.037001 50.824005 C 24.291 50.543999 23.545 50.171005 22.705999 49.798004 C 22.892 48.959 23.732 48.306 24.570999 48.119995 C 24.757 48.119995 24.944 48.119995 25.129999 48.119995 C 27.181 48.119995 29.233 48.119995 31.284 48.119995 C 32.123001 48.119995 32.868999 48.492996 33.334999 49.238998 C 33.521 49.518997 33.708 49.705002 33.894001 49.985001 C 34.080002 49.705002 34.174 49.518997 34.360001 49.332001 C 34.826 48.585999 35.571999 48.119995 36.505001 48.119995 C 38.182999 48.119995 39.862 48.119995 41.632999 48.119995 L 41.726002 48.119995 C 41.354 48.305 41.074001 48.397995 40.793999 48.584999 Z M 45.736 46.160004 C 45.176998 46.440002 44.617001 46.719002 44.057999 46.999001 C 43.965 46.999001 43.872002 46.999001 43.778 46.999001 C 43.404999 46.905998 43.032001 46.813004 42.566002 46.813004 C 40.514999 46.813004 38.369999 46.813004 36.319 46.813004 C 35.387001 46.813004 34.547001 47.093002 33.800999 47.744995 C 33.800999 47.744995 33.708 47.744995 33.708 47.837997 C 33.615002 47.744995 33.521999 47.652 33.428001 47.652 C 32.775002 47.186005 32.123001 46.905998 31.283001 46.905998 C 29.138 46.905998 26.900999 46.905998 24.756001 46.905998 C 23.264 46.905998 22.238001 47.652 21.586 48.957001 C 21.586 49.050003 21.493 49.050003 21.493 49.143005 C 20.653999 48.584 19.815001 48.024002 18.975 47.464996 C 19.254999 47.278999 19.534 47.091995 19.721001 46.905998 C 22.145 45.227997 24.663 43.548996 27.087 41.871002 C 27.087 42.151001 27.18 42.617004 27.273001 42.803001 C 27.646 44.014999 28.392 44.761002 29.604 45.320999 C 30.07 45.507004 30.629999 45.600998 31.188999 45.600998 C 32.773998 45.600998 34.359001 45.694 36.037998 45.694 C 36.970001 45.694 37.716 45.414001 38.462002 44.762001 C 38.462002 44.762001 38.555 44.762001 38.555 44.668999 C 39.021 45.134995 39.674 45.415001 40.327 45.600998 C 40.513 45.600998 40.700001 45.694 40.886002 45.694 C 42.658001 45.694 44.521999 45.694 46.293999 45.694 C 46.387001 45.694 46.48 45.694 46.48 45.694 C 46.202 45.880997 45.922001 46.067001 45.736 46.160004 Z M 76.598999 43.270004 C 76.413002 43.177002 76.133003 43.177002 75.945999 43.084 C 73.894997 42.525002 71.75 42.057999 69.606003 41.591995 C 67.928001 41.311996 66.249001 41.033005 64.664001 40.846001 C 63.917999 40.752998 63.172001 40.660004 62.333 40.660004 L 60.933998 40.660004 C 60.841 41.219002 60.653999 41.686005 60.467999 42.244995 C 60.282001 42.897995 60.001999 43.457001 59.535999 43.923004 C 59.256001 44.296005 58.790001 44.481995 58.324001 44.481995 C 56.366001 44.481995 54.408001 44.481995 52.450001 44.481995 C 51.518002 44.481995 50.771999 44.109001 50.212002 43.362999 C 50.118999 43.177002 49.931999 42.990005 49.745998 42.709999 C 49.560001 42.895996 49.466 43.083 49.373001 43.268997 C 48.813999 44.108002 48.068001 44.481003 47.042 44.481003 C 45.084 44.481003 43.033001 44.481003 41.075001 44.481003 C 40.143002 44.481003 39.303001 44.108002 38.837002 43.268997 C 38.743999 43.083 38.556999 42.803001 38.370998 42.615997 C 38.185001 42.895996 37.998001 43.082001 37.904999 43.362 C 37.438999 44.108002 36.693001 44.481003 35.759998 44.481003 C 34.174999 44.481003 32.682999 44.388 31.098 44.388 C 30.072001 44.388 29.326 44.014999 28.674 43.175995 C 28.488001 42.895996 28.208 41.591003 28.208 41.125 C 28.488001 40.938995 28.767 40.751999 29.047001 40.566002 C 31.937 38.608002 34.827999 36.835999 37.904999 35.065002 C 38.743999 34.598999 39.490002 34.225998 40.328999 33.759995 C 41.448002 33.201004 42.66 33.106995 43.872002 33.387001 C 44.710999 33.572998 45.549999 33.945999 46.389999 34.319 C 46.855999 34.505005 47.321999 34.785004 47.882 34.972 C 48.535 35.251999 49.187 35.530998 49.84 35.438004 C 50.398998 35.438004 50.866001 35.345001 51.424999 35.158005 C 52.451 34.877998 53.382999 34.505005 54.409 34.225998 C 55.341 33.945999 56.273998 33.667 57.206001 33.572998 C 58.044998 33.479996 58.883999 33.572998 59.630001 33.852997 C 61.122002 34.412003 62.52 35.158005 63.918999 35.811005 C 66.808998 37.303001 69.699997 38.981003 72.497002 40.566002 C 73.802002 41.311996 75.108002 42.151001 76.413002 42.897003 C 76.504997 43.177002 76.504997 43.270004 76.598999 43.270004 L 76.598999 43.270004 Z"/>
    </g>
</svg>
