<?xml version="1.0" encoding="UTF-8"?>
<!-- Generated by Pixelmator Pro 3.6.18 -->
<svg width="100" height="99" viewBox="0 0 100 99" xmlns="http://www.w3.org/2000/svg">
    <path id="Path" fill="#ffffff" stroke="none" d="M 94.997002 46.274002 C 94.953003 49.035004 94.157997 51.619995 93.082001 54.128998 C 90.960999 59.07 87.959999 63.451 84.43 67.476997 C 83.230003 68.846001 81.946999 70.144997 80.653999 71.428001 C 78.831001 73.237 76.304001 73.344002 74.337997 71.699997 C 71.732002 69.521004 69.144997 67.318001 66.571999 65.099998 C 64.744003 63.525002 64.454002 61.015999 65.836998 58.974998 C 68.283997 55.362999 71.099998 52.061996 74.282997 49.078995 C 77.106003 46.432999 80.143997 44.071999 83.619003 42.326996 C 85.332001 41.466995 87.105003 40.761002 89.038002 40.587997 C 92.672997 40.263 94.681999 41.957001 94.996002 45.591995 C 95.014 45.817001 94.997002 46.046005 94.997002 46.274002 Z"/>
    <path id="path1" fill="#ffffff" stroke="none" d="M 14.888 65.014999 C 13.241 65.014999 11.593 65.018997 9.946 65.014 C 7.282 65.007004 5.464 63.311001 5.193 60.671997 C 4.729 56.137001 4.752 51.609001 5.329 47.089996 C 5.839 43.097 6.722 39.195999 8.479 35.540001 C 9.189 34.063995 10.05 32.684998 11.232 31.531998 C 13.523 29.294998 16.253 29.290001 18.537001 31.529999 C 20.106001 33.069 21.115 34.968002 21.934999 36.974998 C 23.275999 40.255005 24.013 43.688995 24.458 47.191002 C 24.936001 50.957001 25.014999 54.737 24.764 58.522995 C 24.698999 59.5 24.629999 60.485001 24.445999 61.444 C 24.052999 63.487 22.282 64.960999 20.198 65.002998 C 18.429001 65.039001 16.658001 65.010002 14.888 65.010002 C 14.888 65.011002 14.888 65.013 14.888 65.014999 Z"/>
    <path id="path2" fill="#ffffff" stroke="none" d="M 62.122002 83.125 C 59.763 83.102997 57.671001 81.883003 57.278999 78.731003 C 56.926998 75.900002 57.589001 73.205002 58.735001 70.661003 C 59.932999 68.000999 63.396 67.351997 65.693001 69.253998 C 67.325996 70.605003 68.941002 71.976997 70.531998 73.375999 C 72.861 75.424004 72.504997 79.116997 69.819 80.669998 C 67.653 81.921997 65.384003 82.920998 62.842999 83.122002 C 62.604 83.141998 62.362 83.125 62.122002 83.125 Z"/>
    <path id="path3" fill="#ffffff" stroke="none" d="M 14.916 68.766998 C 15.95 68.766998 16.983 68.755997 18.017 68.768997 C 21.240999 68.810997 23.365999 71.865997 22.263 74.889999 C 21.479 77.040001 20.486 79.082001 18.934 80.799004 C 17.816999 82.033997 16.511999 82.926003 14.753 82.884003 C 13.457 82.852997 12.376 82.291 11.469 81.422997 C 9.348 79.394997 8.02 76.871002 7.311 74.069 C 6.67 71.535004 8.777 68.907997 11.396 68.788002 C 12.567 68.734001 13.743 68.778999 14.916 68.778999 C 14.916 68.775002 14.916 68.771004 14.916 68.766998 Z"/>
    <path id="path4" fill="#ffffff" stroke="none" d="M 71.417999 31.509003 C 71.980003 30.923996 72.477997 30.389 72.994003 29.873001 C 73.513 29.354004 74.051003 28.852997 74.605003 28.320999 C 74.121002 27.722 73.917 27.095001 74.112999 26.421997 C 74.210999 26.084999 74.411003 25.738998 74.658997 25.489998 C 75.338997 24.808998 76.197998 24.82 77.299004 25.453003 C 78.352997 24.434998 79.406998 23.416 80.494003 22.364998 C 81.625 26.451004 82.757004 30.544998 83.919998 34.748001 C 79.733002 33.662994 75.622002 32.598 71.417999 31.509003 Z"/>
    <path id="path5" fill="#ffffff" stroke="none" d="M 33.952 29.781998 C 32.924999 29.737 32.341999 29.346001 32.005001 28.615997 C 31.662001 27.872002 31.75 27.113998 32.334999 26.578003 C 33.455002 25.553001 34.619999 24.569 35.838001 23.663002 C 36.625 23.076996 37.785999 23.385002 38.352001 24.179001 C 38.903999 24.953003 38.800999 26.079002 38.077 26.707001 C 37.035 27.612 35.983002 28.509003 34.900002 29.363998 C 34.589001 29.609001 34.153999 29.696999 33.952 29.781998 Z"/>
    <path id="path6" fill="#ffffff" stroke="none" d="M 53.348 17.294998 C 53.858002 17.339005 54.235001 17.319 54.582001 17.412003 C 55.452999 17.648003 55.987999 18.500999 55.902 19.432999 C 55.821999 20.301003 55.113998 21.033005 54.236 21.134003 C 52.933998 21.283005 51.632 21.421997 50.328999 21.558998 C 49.236 21.673996 48.317001 20.968002 48.146999 19.891998 C 47.991001 18.904999 48.715 17.938004 49.794998 17.768997 C 51.02 17.578003 52.252998 17.438995 53.348 17.294998 Z"/>
    <path id="path7" fill="#ffffff" stroke="none" d="M 73.583 23.413002 C 73.592003 25.168999 72.164001 26.113998 70.866997 25.486 C 69.625999 24.885002 68.408997 24.231003 67.199997 23.566002 C 66.318001 23.081001 66.005997 22.011002 66.428001 21.111 C 66.849998 20.210999 67.900002 19.709999 68.800003 20.128998 C 70.160004 20.762001 71.481003 21.486 72.790001 22.221001 C 73.341003 22.528999 73.577003 23.091995 73.583 23.413002 Z"/>
    <path id="path8" fill="#ffffff" stroke="none" d="M 46.859001 21.132004 C 46.814999 21.793999 46.459 22.399002 45.710999 22.724998 C 44.479 23.262001 43.243 23.789001 42.001999 24.304001 C 41.073002 24.688995 40.051998 24.296997 39.591 23.403 C 39.134998 22.516998 39.376999 21.369003 40.269001 20.931999 C 41.646 20.257996 43.061001 19.637001 44.512001 19.147003 C 45.687 18.75 46.863998 19.757004 46.859001 21.132004 Z"/>
    <path id="path9" fill="#ffffff" stroke="none" d="M 59.932999 17.563995 C 60.874001 17.757004 62.323002 18.003998 63.743 18.362999 C 64.766998 18.622002 65.296997 19.682999 65.030998 20.681999 C 64.762001 21.693001 63.792 22.227997 62.702999 22.011002 C 61.505001 21.772003 60.300999 21.556 59.094002 21.362 C 57.992001 21.184998 57.278 20.323997 57.375999 19.227997 C 57.466 18.214005 58.331001 17.501999 59.932999 17.563995 Z"/>
    <path id="path10" fill="#ffffff" stroke="none" d="M 26.742001 32.826004 C 26.781 32.667 26.764 32.341995 26.917999 32.175003 C 27.657 31.374001 28.374001 30.527 29.232 29.870003 C 29.886 29.369003 30.85 29.660995 31.413 30.285004 C 32.001999 30.936996 32.153 31.877998 31.621 32.548004 C 31.049999 33.266998 30.388 33.933998 29.68 34.518997 C 29.115 34.985001 28.4 34.951004 27.749001 34.599998 C 27.093 34.247002 26.783001 33.667 26.742001 32.826004 Z"/>
</svg>
