<?xml version="1.0" encoding="UTF-8"?>
<!-- Generated by Pixelmator Pro 3.6.18 -->
<svg width="110" height="110" viewBox="0 0 110 110" xmlns="http://www.w3.org/2000/svg">
    <path id="Path" fill="#000000" stroke="none" d="M 36.871002 24.854996 C 36.128811 24.14016 35.765499 23.440903 35.7929 22.792496 C 35.847588 21.79641 36.76165 21.042496 36.76165 21.042496 C 37.339771 20.585472 37.44915 19.737801 36.992119 19.144104 C 36.535088 18.565979 35.68742 18.456604 35.093719 18.913628 C 34.906219 19.062073 33.234322 20.437027 33.11322 22.61673 C 33.031189 24.085526 33.664001 25.483932 34.984322 26.78083 C 35.632759 27.413635 35.925728 27.980026 35.859322 28.464432 C 35.749939 29.245682 34.781219 29.944931 34.445221 30.120628 C 33.79678 30.48391 33.5546 31.292526 33.906158 31.940933 C 34.14835 32.397964 34.621002 32.655769 35.08976 32.655769 C 35.3046 32.655769 35.519447 32.601082 35.738197 32.495605 C 35.980392 32.362801 38.214802 31.10891 38.527302 28.85891 C 38.66011 27.897972 38.488235 26.433105 36.871101 24.855011 Z M 46.445202 23.237801 C 45.703011 22.511238 45.3554 21.808098 45.382702 21.163605 C 45.421764 20.167511 46.339729 19.413597 46.339729 19.413597 C 46.933479 18.956573 47.027229 18.120598 46.570202 17.526901 C 46.113171 16.933151 45.265499 16.839401 44.683498 17.296432 C 44.495998 17.44487 42.812401 18.80423 42.691299 20.999527 C 42.609268 22.46833 43.242081 23.86673 44.577999 25.159729 C 45.22644 25.792542 45.519409 26.358932 45.452999 26.84333 C 45.34362 27.612862 44.374901 28.312134 44.038898 28.499527 C 43.390461 28.851089 43.148281 29.659729 43.49984 30.319832 C 43.742031 30.765137 44.199059 31.034668 44.683441 31.034668 C 44.898281 31.034668 45.113129 30.97998 45.31625 30.874512 C 45.574059 30.741699 47.79285 29.472214 48.11705 27.226112 C 48.249859 26.284698 48.062363 24.81591 46.445148 23.237808 Z M 56.039001 22.163605 C 55.29681 21.448761 54.933498 20.749496 54.960899 20.101097 C 55.015587 19.105011 55.929649 18.351097 55.929649 18.351097 C 56.507771 17.894073 56.617149 17.046402 56.160118 16.452698 C 55.703091 15.87458 54.855419 15.765198 54.261719 16.222229 C 54.074219 16.370667 52.402321 17.745628 52.281219 19.925331 C 52.199188 21.394135 52.832001 22.792526 54.152321 24.089432 C 54.800758 24.722244 55.093731 25.288628 55.027321 25.773026 C 54.917938 26.554276 53.949219 27.253532 53.61322 27.42923 C 52.964779 27.792511 52.722599 28.601128 53.074162 29.249527 C 53.316349 29.706558 53.789001 29.964371 54.257759 29.964371 C 54.472599 29.964371 54.68745 29.909683 54.9062 29.804214 C 55.148392 29.671402 57.382801 28.417511 57.695301 26.167511 C 57.82811 25.206573 57.652332 23.737808 56.039101 22.163612 Z M 65.613205 23.237801 C 64.87101 22.511238 64.523399 21.808098 64.550705 21.163605 C 64.589767 20.167511 65.507729 19.413597 65.507729 19.413597 C 66.101479 18.956573 66.195229 18.120598 65.738205 17.526901 C 65.281174 16.933197 64.433502 16.839401 63.851501 17.296432 C 63.664001 17.44487 61.9804 18.80423 61.859299 20.999527 C 61.777267 22.46833 62.41008 23.86673 63.745998 25.159729 C 64.39444 25.792542 64.687408 26.358932 64.621002 26.84333 C 64.51162 27.612862 63.5429 28.312134 63.206902 28.499527 C 62.55846 28.851089 62.31628 29.659729 62.667839 30.319832 C 62.91003 30.765137 63.367062 31.034668 63.85144 31.034668 C 64.066284 31.034668 64.281128 30.97998 64.484253 30.874512 C 64.742065 30.741699 66.960846 29.472214 67.285049 27.226112 C 67.417862 26.284698 67.230362 24.81591 65.613152 23.237808 Z M 75.203003 24.854996 C 74.460808 24.14016 74.097504 23.440903 74.124901 22.792496 C 74.179588 21.79641 75.093651 21.042496 75.093651 21.042496 C 75.671768 20.585472 75.781151 19.737801 75.32412 19.144104 C 74.867088 18.565979 74.019417 18.456604 73.437424 18.913628 C 73.234299 19.062073 71.566322 20.437027 71.445221 22.61673 C 71.36319 24.085526 71.996002 25.483932 73.316322 26.78083 C 73.96476 27.413635 74.257729 27.980026 74.191322 28.464432 C 74.08194 29.245682 73.11322 29.944931 72.777222 30.120628 C 72.128777 30.48391 71.886597 31.292526 72.238159 31.940933 C 72.480347 32.397964 72.953003 32.655769 73.421761 32.655769 C 73.636597 32.655769 73.867073 32.601082 74.070198 32.495605 C 74.312393 32.362801 76.546799 31.10891 76.859299 28.85891 C 76.996017 27.897972 76.820236 26.433105 75.203102 24.855011 Z M 55 41.639999 C 43.688 41.639999 36.926003 44.655602 34.648003 46.4095 C 37.222198 48.956406 38.687099 52.483704 38.687099 56.1595 L 38.687099 84.6325 L 71.312103 84.6325 L 71.312103 56.1595 C 71.312103 52.483704 72.780899 48.952499 75.351196 46.4095 C 73.073898 44.655602 66.312103 41.639999 54.999199 41.639999 Z M 57.355499 51.378296 C 57.828159 50.800179 58.6875 50.71814 59.253899 51.190796 C 59.820309 51.675179 59.90234 52.522797 59.42968 53.089203 L 45.542679 69.8312 C 45.273151 70.155418 44.882519 70.315582 44.507481 70.315582 C 44.198891 70.315582 43.886391 70.221832 43.644199 70.006989 C 43.066078 69.534332 42.984039 68.686691 43.468418 68.108589 Z M 42.609501 60.456406 L 50.34 51.147797 C 50.81266 50.569672 51.672001 50.48764 52.2384 50.972015 C 52.80481 51.444679 52.886841 52.29232 52.414181 52.870422 L 44.683681 62.179016 C 44.41415 62.503235 44.03524 62.663391 43.644581 62.663391 C 43.347698 62.663391 43.039108 62.569641 42.7813 62.354797 C 42.2188 61.882141 42.136768 61.0345 42.609421 60.456406 Z M 53.668499 76.620399 C 53.37162 76.620399 53.06303 76.526649 52.820839 76.311813 C 52.242722 75.839149 52.160679 74.991508 52.645061 74.42511 L 63.934059 60.808105 C 64.406723 60.241699 65.26606 60.159668 65.832458 60.632332 C 66.398865 61.104988 66.480896 61.964325 66.00824 62.530731 L 54.703239 76.132729 C 54.449329 76.456947 54.058708 76.62101 53.668041 76.62101 Z M 66.906502 70.128197 L 61.679901 76.417297 C 61.41037 76.741524 61.03146 76.90168 60.6408 76.90168 C 60.332211 76.90168 60.035332 76.80793 59.777519 76.593086 C 59.211109 76.12043 59.129082 75.272789 59.601742 74.694687 L 64.828339 68.405594 C 65.300995 67.827469 66.160339 67.74543 66.726746 68.229813 C 67.29705 68.698563 67.379082 69.546211 66.906433 70.128212 Z M 67.390884 52.187195 L 45.449879 78.613197 C 45.180351 78.937424 44.801441 79.09758 44.41468 79.09758 C 44.117809 79.09758 43.809212 79.00383 43.551399 78.788986 C 42.984989 78.31633 42.902962 77.468689 43.375622 76.890587 L 65.31662 50.464584 C 65.789276 49.898178 66.636917 49.816147 67.215019 50.288811 C 67.781433 50.757561 67.863464 51.605209 67.3908 52.18721 Z M 54.999882 41.640198 C 43.687881 41.640198 36.92588 44.6558 34.647881 46.409698 C 37.22208 48.956604 38.686981 52.483902 38.686981 56.159698 L 38.686981 84.632698 L 71.311981 84.632698 L 71.311981 56.159698 C 71.311981 52.483902 72.780777 48.952698 75.351082 46.409698 C 73.073776 44.6558 66.311981 41.640198 54.999081 41.640198 Z M 57.355381 51.378502 C 57.828041 50.800385 58.687382 50.718338 59.25378 51.191002 C 59.82019 51.675385 59.902222 52.522995 59.429562 53.089401 L 45.542561 69.831398 C 45.273029 70.155617 44.882401 70.315781 44.507359 70.315781 C 44.198769 70.315781 43.886269 70.222031 43.644081 70.007187 C 43.06596 69.534531 42.983921 68.68689 43.4683 68.108795 Z M 42.609379 60.456604 L 50.339882 51.147995 C 50.812538 50.56987 51.671879 50.487839 52.238281 50.972221 C 52.804691 51.444885 52.886719 52.292519 52.414059 52.870621 L 44.683559 62.179214 C 44.414028 62.503441 44.035118 62.663589 43.644459 62.663589 C 43.34758 62.663589 43.03899 62.569839 42.781181 62.354996 C 42.218681 61.882339 42.13665 61.034698 42.609299 60.456604 Z M 53.668381 76.620598 C 53.371498 76.620598 53.062908 76.526848 52.820721 76.312012 C 52.242599 75.839348 52.160561 74.991707 52.644939 74.425308 L 63.933941 60.808311 C 64.406601 60.241898 65.265945 60.159866 65.832336 60.63253 C 66.39875 61.105194 66.480782 61.964531 66.008118 62.53093 L 54.703121 76.132927 C 54.449211 76.457153 54.05859 76.621208 53.667919 76.621208 Z M 66.90638 70.128403 L 61.679779 76.417503 C 61.410252 76.741722 61.031342 76.901878 60.640678 76.901878 C 60.332088 76.901878 60.03521 76.808128 59.777401 76.593292 C 59.210991 76.120628 59.12896 75.272987 59.60162 74.694893 L 64.828217 68.405792 C 65.30088 67.827667 66.160217 67.745628 66.726624 68.230011 C 67.296928 68.698761 67.37896 69.54641 66.906311 70.12841 Z M 67.390762 52.187401 L 45.44976 78.613403 C 45.180229 78.937622 44.801319 79.097778 44.414558 79.097778 C 44.117691 79.097778 43.80909 79.004028 43.551281 78.789192 C 42.984871 78.316528 42.90284 77.468887 43.3755 76.890793 L 65.316498 50.46479 C 65.789162 49.898376 66.636795 49.816345 67.214905 50.289009 C 67.781311 50.757759 67.863342 51.605408 67.390678 52.187408 Z M 54.99976 32.210403 C 37.948761 32.210403 24.58576 38.4487 24.58576 46.421402 C 24.58576 48.726105 25.730261 50.999496 27.89826 52.995605 C 28.761539 53.776855 29.25766 54.936996 29.25766 56.159698 L 29.25766 89.2687 C 29.25766 91.909302 31.39826 94.065598 34.054558 94.065598 L 75.945557 94.065598 C 78.597862 94.065598 80.742462 91.909401 80.742462 89.2687 L 80.738556 56.159698 C 80.738556 54.933105 81.238556 53.776901 82.097954 52.995605 C 84.265953 51.003403 85.410454 48.726105 85.410454 46.421402 C 85.41436 38.444801 72.051453 32.210403 55.000454 32.210403 Z M 78.315758 47.187401 C 78.128258 47.456924 77.870453 47.738174 77.546227 48.023338 C 75.296227 50.085838 74.003227 53.046738 74.003227 56.160042 L 74.003227 85.980042 C 74.003227 86.722229 73.409477 87.327744 72.655533 87.327744 L 37.339531 87.327744 C 36.585621 87.327744 35.991829 86.722267 35.991829 85.980042 L 35.995735 56.160042 C 35.995735 53.046738 34.702736 50.085838 32.441036 48.023338 C 32.132446 47.742088 31.874626 47.456924 31.687126 47.187401 C 31.351187 46.73037 31.335566 46.124901 31.648064 45.652199 C 33.487862 42.863098 41.949062 38.945206 55.000065 38.945206 C 68.039063 38.945206 76.512062 42.863205 78.355064 45.652199 C 78.663651 46.124863 78.651947 46.730301 78.316002 47.187401 Z M 34.647758 46.406151 C 37.221958 48.953049 38.686859 52.480347 38.686859 56.156151 L 38.686859 84.62915 L 71.311859 84.62915 L 71.311859 56.160149 C 71.311859 52.484344 72.780663 48.953156 75.35096 46.410149 C 73.073662 44.65625 66.311859 41.640656 54.998959 41.640656 C 43.686062 41.640656 36.924957 44.65625 34.646957 46.40625 Z M 42.608662 60.457153 L 50.339161 51.148544 C 50.811821 50.570419 51.671162 50.488388 52.23756 50.972771 C 52.80397 51.445435 52.886002 52.293076 52.413342 52.87117 L 44.682838 62.179771 C 44.413311 62.50399 44.034401 62.664139 43.643742 62.664139 C 43.346859 62.664139 43.038269 62.570389 42.78046 62.355545 C 42.21796 61.882889 42.135929 61.035248 42.608582 60.457153 Z M 53.66766 76.621147 C 53.370781 76.621147 53.062191 76.527397 52.82 76.312561 C 52.241879 75.839897 52.15984 74.992264 52.644218 74.425858 L 63.93322 60.808861 C 64.405884 60.242447 65.265221 60.160416 65.831619 60.63308 C 66.398026 61.105743 66.480057 61.96508 66.007401 62.531479 L 54.7024 76.133476 C 54.44849 76.457703 54.057869 76.621758 53.667198 76.621758 Z M 66.905655 70.128952 L 61.679062 76.418053 C 61.409531 76.742271 61.030621 76.902428 60.639961 76.902428 C 60.331371 76.902428 60.034489 76.808678 59.77668 76.593842 C 59.21027 76.121178 59.128239 75.273537 59.600899 74.695442 L 64.827499 68.406342 C 65.300156 67.828217 66.1595 67.746185 66.725899 68.23056 C 67.296211 68.69931 67.378235 69.546959 66.905594 70.12896 Z M 67.218155 50.28495 C 67.784569 50.757614 67.8666 51.605255 67.393936 52.18335 L 45.44894 78.61335 C 45.179409 78.937569 44.800499 79.097733 44.413738 79.097733 C 44.116871 79.097733 43.80827 79.003983 43.550461 78.789139 C 42.984051 78.316483 42.90202 77.468842 43.37468 76.890739 L 65.315681 50.464737 C 65.788345 49.894424 66.635979 49.816299 67.217979 50.285049 Z M 59.257259 51.187286 C 59.823669 51.671669 59.905701 52.519287 59.433041 53.085693 L 45.542042 69.831688 C 45.272511 70.155907 44.881882 70.316071 44.50684 70.316071 C 44.19825 70.316071 43.88575 70.222321 43.643559 70.007477 C 43.065441 69.534821 42.983398 68.68718 43.467781 68.109085 L 57.354778 51.379082 C 57.827438 50.79705 58.690681 50.718918 59.25708 51.187668 Z"/>
</svg>
