<?xml version="1.0" encoding="UTF-8"?>
<!-- Generated by Pixelmator Pro 3.6.18 -->
<svg width="64" height="64" viewBox="0 0 64 64" xmlns="http://www.w3.org/2000/svg">
    <path id="Path" fill="#ffffff" stroke="none" d="M 29.738001 29.700001 C 28.2833 30.695663 27.651897 32.526257 28.183449 34.207016 C 28.715002 35.887772 30.284184 37.022411 32.046856 37.000557 C 33.809532 36.978703 35.350098 35.805508 35.839817 34.112087 C 36.329533 32.418667 35.652939 30.604294 34.174 29.645 L 38.973999 11.245003 C 39.056862 10.919167 38.970444 10.573502 38.743999 10.324997 C 38.515469 10.075928 38.178474 9.956108 37.844002 10.004997 L 25.844 12.004997 C 25.560125 12.055923 25.310188 12.222549 25.153999 12.464996 C 25.003614 12.707001 24.9636 13.001656 25.044001 13.275002 Z"/>
    <path id="path1" fill="#ffffff" stroke="none" d="M 61.080002 30.259003 C 60.403999 30.206001 46.452 29.198997 37.793999 31.468002 C 38.449657 33.905205 37.510036 36.492157 35.443096 37.940472 C 33.376156 39.388783 30.623842 39.388783 28.556904 37.940472 C 26.489965 36.492157 25.550343 33.905205 26.205999 31.468002 C 17.548 29.200001 3.6 30.206001 2.92 30.259003 C 2.424367 30.305244 2.035047 30.703449 2 31.200001 C 1.97017 31.697609 2.311388 32.141193 2.8 32.240002 C 2.98 32.279999 7 33.139999 7 37.130001 C 7 42.43 9.27 52.740002 17.879999 53.790001 C 18.964769 53.925869 20.056763 53.995998 21.15 54 C 24.889999 54 27.83 53.080002 29.92 51.25 C 30.777985 50.504993 31.484217 49.60149 32 48.589001 C 32.515892 49.601131 33.222118 50.504288 34.080002 51.249001 C 36.75 53.589001 40.799999 54.438999 46.119999 53.789001 C 54.73 52.738998 57 42.429001 57 37.129002 C 57 33.148998 61.009998 32.278999 61.200001 32.238998 C 61.694012 32.144733 62.041157 31.698235 62.010731 31.196228 C 61.980305 30.694221 61.581783 30.292915 61.080002 30.259003 Z M 24.299999 44.5 C 23.099634 45.06329 21.729149 45.145592 20.469999 44.73 C 20.43 44.720001 20.4 44.709999 20.370001 44.700001 C 18.360001 44.240002 14.9 42.919998 14.14 41.34 C 13.938286 40.923069 13.953224 40.433846 14.18 40.029999 C 14.392974 39.594036 14.788685 39.275269 15.26 39.16 C 15.656586 39.046963 16.067678 38.99305 16.48 39 C 19.309999 39 23.66 40.970001 25.870001 42.139999 C 25.680689 43.103886 25.115858 43.95293 24.299999 44.5 Z M 49.860001 41.34 C 49.099998 42.919998 45.639999 44.240002 43.630001 44.700001 L 43.540001 44.73 C 42.277409 45.145077 40.904022 45.062817 39.700001 44.5 C 38.88414 43.95293 38.319309 43.103886 38.130001 42.139999 C 40.689999 40.779999 46.130001 38.34 48.740002 39.16 C 49.20982 39.278278 49.604401 39.596138 49.82 40.029999 C 50.046429 40.433582 50.061363 40.922344 49.860001 41.339001 Z"/>
    <path id="path2" fill="#ffffff" stroke="none" d="M 27.431999 29.118999 C 27.447001 29.101997 27.462 29.086998 27.476 29.07 L 23.712 15.912003 L 20.65 17.061001 C 20.362104 17.17054 20.140757 17.406643 20.049999 17.701 C 19.951622 17.995094 19.999949 18.318512 20.18 18.570999 Z"/>
    <path id="path3" fill="#ffffff" stroke="none" d="M 36.743999 29.34 L 44.799999 18.599998 C 44.978935 18.355465 45.041122 18.044548 44.970001 17.75 C 44.893147 17.456425 44.687141 17.213631 44.41 17.09 L 40.022999 15.137001 L 36.423 28.956001 C 36.534 29.081001 36.640999 29.208 36.743999 29.34 Z"/>
</svg>
