<svg xmlns="http://www.w3.org/2000/svg" xmlns:xlink="http://www.w3.org/1999/xlink" version="1.1" x="0px" y="0px" viewBox="0 0 100 125" enable-background="new 0 0 100 100" xml:space="preserve"><path d="M94.997,46.274c-0.044,2.761-0.839,5.346-1.915,7.855c-2.121,4.941-5.122,9.322-8.652,13.348  c-1.2,1.369-2.483,2.668-3.776,3.951c-1.823,1.809-4.35,1.916-6.316,0.272c-2.606-2.179-5.193-4.382-7.766-6.6  c-1.828-1.575-2.118-4.084-0.735-6.125c2.447-3.612,5.263-6.913,8.446-9.896c2.823-2.646,5.861-5.007,9.336-6.752  c1.713-0.86,3.486-1.566,5.419-1.739c3.635-0.325,5.644,1.369,5.958,5.004C95.014,45.817,94.997,46.046,94.997,46.274z"/><path d="M14.888,65.015c-1.647,0-3.295,0.004-4.942-0.001c-2.664-0.007-4.482-1.703-4.753-4.342  c-0.464-4.535-0.441-9.063,0.136-13.582c0.51-3.993,1.393-7.894,3.15-11.55c0.71-1.476,1.571-2.855,2.753-4.008  c2.291-2.237,5.021-2.242,7.305-0.002c1.569,1.539,2.578,3.438,3.398,5.445c1.341,3.28,2.078,6.714,2.523,10.216  c0.478,3.766,0.557,7.546,0.306,11.332c-0.065,0.977-0.134,1.962-0.318,2.921c-0.393,2.043-2.164,3.517-4.248,3.559  c-1.769,0.036-3.54,0.007-5.31,0.007C14.888,65.011,14.888,65.013,14.888,65.015z"/><path d="M62.122,83.125c-2.359-0.022-4.451-1.242-4.843-4.394c-0.352-2.831,0.31-5.526,1.456-8.07  c1.198-2.66,4.661-3.309,6.958-1.407c1.633,1.351,3.248,2.723,4.839,4.122c2.329,2.048,1.973,5.741-0.713,7.294  c-2.166,1.252-4.435,2.251-6.976,2.452C62.604,83.142,62.362,83.125,62.122,83.125z"/><path d="M14.916,68.767c1.034,0,2.067-0.011,3.101,0.002c3.224,0.042,5.349,3.097,4.246,6.121c-0.784,2.15-1.777,4.192-3.329,5.909  c-1.117,1.235-2.422,2.127-4.181,2.085c-1.296-0.031-2.377-0.593-3.284-1.461c-2.121-2.028-3.449-4.552-4.158-7.354  c-0.641-2.534,1.466-5.161,4.085-5.281c1.171-0.054,2.347-0.009,3.52-0.009C14.916,68.775,14.916,68.771,14.916,68.767z"/><path d="M71.418,31.509c0.562-0.585,1.06-1.12,1.576-1.636c0.519-0.519,1.057-1.02,1.611-1.552  c-0.484-0.599-0.688-1.226-0.492-1.899c0.098-0.337,0.298-0.683,0.546-0.932c0.68-0.681,1.539-0.67,2.64-0.037  c1.054-1.018,2.108-2.037,3.195-3.088c1.131,4.086,2.263,8.18,3.426,12.383C79.733,33.663,75.622,32.598,71.418,31.509z"/><path d="M33.952,29.782c-1.027-0.045-1.61-0.436-1.947-1.166c-0.343-0.744-0.255-1.502,0.33-2.038  c1.12-1.025,2.285-2.009,3.503-2.915c0.787-0.586,1.948-0.278,2.514,0.516c0.552,0.774,0.449,1.9-0.275,2.528  c-1.042,0.905-2.094,1.802-3.177,2.657C34.589,29.609,34.154,29.697,33.952,29.782z"/><path d="M53.348,17.295c0.51,0.044,0.887,0.024,1.234,0.117c0.871,0.236,1.406,1.089,1.32,2.021c-0.08,0.868-0.788,1.6-1.666,1.701  c-1.302,0.149-2.604,0.288-3.907,0.425c-1.093,0.115-2.012-0.591-2.182-1.667c-0.156-0.987,0.568-1.954,1.648-2.123  C51.02,17.578,52.253,17.439,53.348,17.295z"/><path d="M73.583,23.413c0.009,1.756-1.419,2.701-2.716,2.073c-1.241-0.601-2.458-1.255-3.667-1.92  c-0.882-0.485-1.194-1.555-0.772-2.455c0.422-0.9,1.472-1.401,2.372-0.982c1.36,0.633,2.681,1.357,3.99,2.092  C73.341,22.529,73.577,23.092,73.583,23.413z"/><path d="M46.859,21.132c-0.044,0.662-0.4,1.267-1.148,1.593c-1.232,0.537-2.468,1.064-3.709,1.579  c-0.929,0.385-1.95-0.007-2.411-0.901c-0.456-0.886-0.214-2.034,0.678-2.471c1.377-0.674,2.792-1.295,4.243-1.785  C45.687,18.75,46.864,19.757,46.859,21.132z"/><path d="M59.933,17.564c0.941,0.193,2.39,0.44,3.81,0.799c1.024,0.259,1.554,1.32,1.288,2.319c-0.269,1.011-1.239,1.546-2.328,1.329  c-1.198-0.239-2.402-0.455-3.609-0.649c-1.102-0.177-1.816-1.038-1.718-2.134C57.466,18.214,58.331,17.502,59.933,17.564z"/><path d="M26.742,32.826c0.039-0.159,0.022-0.484,0.176-0.651c0.739-0.801,1.456-1.648,2.314-2.305  c0.654-0.501,1.618-0.209,2.181,0.415c0.589,0.652,0.74,1.593,0.208,2.263c-0.571,0.719-1.233,1.386-1.941,1.971  c-0.565,0.466-1.28,0.432-1.931,0.081C27.093,34.247,26.783,33.667,26.742,32.826z"/><text x="0" y="115" fill="#000000" font-size="5px" font-weight="bold" font-family="'Helvetica Neue', Helvetica, Arial-Unicode, Arial, Sans-serif">Created by Gorreá</text><text x="0" y="120" fill="#000000" font-size="5px" font-weight="bold" font-family="'Helvetica Neue', Helvetica, Arial-Unicode, Arial, Sans-serif">from the Noun Project</text></svg>