<svg xmlns="http://www.w3.org/2000/svg" viewBox="0 0 128 160" x="0px" y="0px"><g><path d="M102.588,119.487a.877.877,0,0,1,.019.885.976.976,0,0,1-.923.747l-1.1.075a.918.918,0,0,1-.879-.628.815.815,0,0,1-.295-.244c-7.608-9.2-15.015-18.587-22.843-27.607-4.475,9.4-7.482,19.553-11.587,29.082a.738.738,0,0,1-.986.439.811.811,0,0,1-1-.427c-4.727-9.2-8.4-19.132-13.5-28.19-7.162,9.484-13.885,19.321-20.808,28.975a.968.968,0,0,1-.509.364A.914.914,0,0,1,27.244,124H25.988c-.3,0-.458-.433-.47-.885a.947.947,0,0,1-.132-1.055A440.991,440.991,0,0,0,46.973,70.023c2.931-8.775,5.568-17.664,7.639-26.684,1.952-8.518,2.749-17.074,4.156-25.674a.816.816,0,0,1,1.261-.558,1.046,1.046,0,0,1,.791-.038.88.88,0,0,1,1.331.546c2.084,8.864,3.5,17.7,6.233,26.421Q72.527,57.3,77.938,70.13A454.424,454.424,0,0,0,102.588,119.487ZM89.055,104.7c3.276,4,6.528,8.016,9.8,12.008-3.917-6.974-7.7-14.029-11.287-21.179A39.459,39.459,0,0,0,89.055,104.7ZM86.688,93.732a.6.6,0,0,1-.031-.063.908.908,0,0,1-.546-.006,58.038,58.038,0,0,0-7.8-1.8q2.475,2.863,4.9,5.763A24.369,24.369,0,0,1,86.688,93.732Zm1,9.3a31.5,31.5,0,0,1-1.042-7.99,28.587,28.587,0,0,0-2.819,3.326Q85.772,100.7,87.693,103.034Zm-2.455-12.24c-1.18-2.436-2.354-4.884-3.49-7.344-.6.916-1.193,1.839-1.745,2.781C81.7,87.8,83.481,89.281,85.238,90.794Zm-.985.389c-1.595-1.368-3.195-2.724-4.733-4.136-.54.941-1.055,1.895-1.557,2.856C80.078,90.235,82.175,90.643,84.253,91.183Zm-3.522-9.6A.417.417,0,0,1,80.6,81.5l-.075-.075c-2.046-.427-4.086-.886-6.126-1.356A37.262,37.262,0,0,0,78.6,84.9C79.281,83.782,79.984,82.671,80.731,81.585Zm-.74-2.04c-1.325-2.956-2.624-5.925-3.873-8.913-.208-.5-.408-1-.616-1.507-1.086.659-2.184,1.306-3.283,1.94q.509.434,1,.923C75.6,74.392,77.662,77.091,79.991,79.545ZM76.13,89.363q.942-1.846,1.984-3.647a38.339,38.339,0,0,1-4.746-5.461,25,25,0,0,0-3.126,2.617Q73.236,86.073,76.13,89.363Zm3.208-9.152c-2.091-2.229-3.93-4.677-6.083-6.849a21.521,21.521,0,0,0-1.99-1.757q-3.87,2.184-7.808,4.237v.069c.156.151.307.3.458.452C69,77.851,74.159,79.106,79.338,80.211ZM74.887,67.619c-.728-1.789-1.444-3.591-2.14-5.392a23.9,23.9,0,0,0-4.018,1.852A25.632,25.632,0,0,0,74.887,67.619ZM72.458,97.36c.835-2.015,1.714-4.011,2.661-5.97-3.446-.452-6.917-.759-10.382-1.13A73.773,73.773,0,0,1,72.458,97.36ZM71.422,70.431q1.5-.856,2.969-1.739c-2.981-.791-6.013-1.406-9.039-2.034A53.068,53.068,0,0,1,71.422,70.431ZM69.614,82.207a27.547,27.547,0,0,1,2.976-2.561q-3.663-.885-7.3-1.915Q67.483,79.944,69.614,82.207Zm3.76,7.1c-1.537-1.726-3.025-3.427-4.607-5.116a25.89,25.89,0,0,1-5.116,4.081v.012C67.417,88.647,70.161,88.93,73.374,89.306Zm-4.237,16.6c.948-2.554,1.909-5.1,2.932-7.608A75.386,75.386,0,0,0,64.26,91.07,142.887,142.887,0,0,0,69.137,105.909ZM71.4,58.7q-1.374-3.691-2.649-7.413a24.818,24.818,0,0,0-2.423,2.586A50.627,50.627,0,0,0,71.4,58.7Zm.038,8.3a32.292,32.292,0,0,1-3.6-2.429c-.747.408-1.5.816-2.266,1.18C67.53,66.15,69.5,66.552,71.441,67Zm-4.262-4.161c1.08-.6,2.159-1.2,3.277-1.714A49.264,49.264,0,0,0,63,58.774,45.05,45.05,0,0,0,67.179,62.836Zm.734-14.086q-.319-.96-.621-1.921l-.182-.075c-.54.1-1.08.226-1.62.364Q66.687,47.955,67.913,48.75ZM70.4,59.082a51.18,51.18,0,0,1-4.683-4.488,16.05,16.05,0,0,1-2.391,2.322A52.232,52.232,0,0,1,70.4,59.082ZM66.545,44.469c0-.007-.006-.019-.006-.025-.885-1.168-1.808-2.31-2.775-3.409-.471.484-.935.961-1.444,1.394,0,.144.007.288.013.427C63.764,43.333,65.164,43.885,66.545,44.469Zm-.816,8.738A27.861,27.861,0,0,1,68.1,50.633c-1.814-.778-3.691-1.4-5.568-2.009,0,.107.006.207.012.314A35.743,35.743,0,0,0,65.729,53.207Zm2.542,30.318q-2.325-2.468-4.72-4.865c.012.352.025.7.031,1.061q.132,3.738.283,7.489A25.774,25.774,0,0,0,68.271,83.525Zm-3.4,33.658c1.306-3.264,2.53-6.585,3.754-9.9-1.494-4.306-3.183-8.531-4.463-12.893C64.473,101.986,64.768,109.588,64.869,117.183Zm.916-75.206c-.232-.76-.464-1.519-.69-2.279-.226.214-.458.433-.678.666C64.881,40.891,65.333,41.431,65.785,41.977Zm.842,7.062c-.773-.521-1.532-1.049-2.285-1.589-.39.12-.785.251-1.168.4C64.335,48.222,65.484,48.612,66.627,49.039ZM63.419,74.794c2.36-1.237,4.708-2.5,7.03-3.811-2.222-1.613-4.62-2.881-7.024-4.375-.094.032-.188.057-.282.088Q63.284,70.744,63.419,74.794Zm1.092-28.379c.37-.113.747-.207,1.117-.3-1.048-.446-2.1-.86-3.182-1.237C63.13,45.4,63.814,45.913,64.511,46.415Zm.3-7.7c-.144-.509-.288-1.011-.433-1.513-.747-.082-1.5-.145-2.247-.2.006.314.019.628.031.942.559.571,1.112,1.148,1.645,1.745C64.134,39.353,64.467,39.02,64.812,38.713Zm-2.718-2.656c.678.051,1.35.107,2.022.17q-.5-1.855-.936-3.722a.275.275,0,0,1-.075.018c-.377.026-.753.051-1.13.069Q62.041,34.325,62.094,36.057Zm.986,28.687a21.434,21.434,0,0,0,3.214-1.431,46.187,46.187,0,0,1-3.371-3.239C62.973,61.63,63.03,63.187,63.08,64.744Zm.333-17.978c-.327-.232-.647-.471-.967-.709.012.351.025.7.031,1.054C62.791,46.992,63.1,46.873,63.413,46.766Zm-.622,9.378a15.436,15.436,0,0,0,2.316-2.222,39.66,39.66,0,0,1-2.5-3.182Zm.364-15.787c-.314-.339-.627-.684-.941-1.023.019.628.037,1.262.062,1.889C62.578,40.947,62.867,40.652,63.155,40.357Zm-.182-8.769c-.006-.025-.012-.056-.019-.088-.464-2.147-.847-4.306-1.242-6.471.081,2.209.156,4.412.232,6.622C62.289,31.638,62.628,31.613,62.973,31.588Zm-.025,85.9c-.031-.91-.069-1.814-.094-2.718q-.339-10.724-.64-21.449c-.98,4.84-2.511,9.542-3.811,14.312C59.891,110.931,61.379,114.239,62.948,117.484Zm-.9-30.08-.263-8.982q-2.364,2.7-4.639,5.473A24.98,24.98,0,0,0,62.044,87.4Zm-.364-12.41q-.122-4.086-.251-8.166c-.2-.038-.408-.082-.609-.132-2.285,1.638-4.645,3.051-6.754,4.821C56.583,72.722,59.125,73.871,61.68,74.994ZM61,76.463c.157-.182.314-.357.471-.54C58.73,74.725,56,73.488,53.3,72.195a18.018,18.018,0,0,0-1.845,1.933C49.528,76.482,47.82,79,45.881,81.347,50.971,79.891,56.031,78.29,61,76.463ZM61.373,64.9l-.17-5.16a44.717,44.717,0,0,1-3.465,3.854A20.811,20.811,0,0,0,61.373,64.9ZM61.1,56.427q-.1-3.088-.213-6.19a38.642,38.642,0,0,1-2.6,3.905A14.409,14.409,0,0,0,61.1,56.427Zm-.314-9.14-.056-1.45c-.408.352-.822.709-1.237,1.061C59.923,47.011,60.349,47.143,60.782,47.287Zm-.163-4.494v-.057a17.623,17.623,0,0,1-1.883-1.525q-1.327,1.751-2.542,3.6v.012C57.644,44.086,59.107,43.389,60.619,42.793Zm-.044-1.243c-.031-.835-.069-1.67-.1-2.5-.4.471-.785.954-1.168,1.438C59.722,40.853,60.136,41.217,60.575,41.55Zm-.157-3.886c-.006-.213-.012-.426-.025-.646-.86.125-1.72.257-2.58.408-.1.5-.2,1-.307,1.5.383.295.747.609,1.1.929C59.194,39.108,59.8,38.38,60.418,37.664Zm-.062-1.581c-.044-1.149-.088-2.3-.138-3.447-.6.025-1.256.032-1.494.032a1.21,1.21,0,0,1-.026.144c-.219,1.212-.451,2.423-.684,3.628C58.793,36.309,59.571,36.189,60.356,36.083Zm-2,10.539q.989-.829,1.958-1.676c-1.048.446-2.078.941-3.095,1.456C57.606,46.471,57.983,46.54,58.36,46.622ZM60.186,31.7q-.169-3.888-.345-7.777c-.283,2.605-.54,5.216-.96,7.8C59.27,31.726,59.722,31.72,60.186,31.7ZM57.8,106.292a144.95,144.95,0,0,0,3.854-15.14,77.682,77.682,0,0,0-7.307,7.758C55.541,101.352,56.677,103.819,57.8,106.292Zm1.99-58.333c-.4-.119-.791-.22-1.193-.314-.716.59-1.437,1.168-2.172,1.732Q58.093,48.634,59.791,47.959ZM57.613,53.47a36.276,36.276,0,0,0,3.113-4.877c-1.915.766-3.816,1.544-5.649,2.486A27.575,27.575,0,0,1,57.613,53.47Zm2.642,3.547a15.991,15.991,0,0,1-2.542-2.153,50.683,50.683,0,0,1-4.35,4.783A54.081,54.081,0,0,1,60.255,57.017ZM55.717,82.678q1.968-2.41,4.005-4.765c-2.367.848-4.758,1.657-7.156,2.411A27.262,27.262,0,0,1,55.717,82.678Zm2.322-42.095c-.244-.219-.5-.433-.747-.634-.169.779-.339,1.563-.514,2.342C57.192,41.713,57.606,41.142,58.039,40.583Zm-1.2,22.6a44.234,44.234,0,0,0,3.886-4.338,50.185,50.185,0,0,0-7.275,2.85C54.6,62.133,55.717,62.66,56.834,63.181Zm5,25.165a24.7,24.7,0,0,1-5.279-3.735q-2.185,2.683-4.306,5.423C55.428,89.432,58.636,88.93,61.831,88.346ZM58.6,65.98c-.791-.307-1.563-.652-2.335-1.01a30.583,30.583,0,0,1-3.421,2.655C54.756,67.048,56.684,66.52,58.6,65.98Zm-1.18-18.592c-.54-.1-1.079-.182-1.626-.251l-.188.094c-.163.653-.326,1.312-.5,1.964C55.9,48.605,56.671,48.009,57.424,47.388Zm-.376,6.8a25.019,25.019,0,0,0-2.605-2.423q-1.008,3.8-2.116,7.564A50.908,50.908,0,0,0,57.048,54.192ZM53.89,98a74.062,74.062,0,0,1,7.225-7.62c-3.433.609-6.88,1.148-10.288,1.839C51.9,94.115,52.917,96.048,53.89,98Zm-.747-26.922a59.961,59.961,0,0,1,5.781-4.206c-2.981.828-5.969,1.651-8.907,2.649Q51.571,70.312,53.143,71.078Zm1.984,12.315a25.767,25.767,0,0,0-3.3-2.4,38.76,38.76,0,0,1-4.369,5.775c.779,1.155,1.513,2.329,2.229,3.515Q52.355,86.8,55.127,83.393ZM51.442,72.7c.308-.332.622-.646.942-.948q-1.724-.846-3.428-1.719c-.307.9-.608,1.8-.922,2.7-.923,2.68-1.89,5.342-2.875,8C47.305,78.1,49.132,75.2,51.442,72.7Zm3.911-8.16a24.206,24.206,0,0,0-4.124-1.582q-.847,2.769-1.764,5.524A25.643,25.643,0,0,0,55.353,64.543ZM50.789,80.876c-2,.609-4.011,1.2-6.019,1.77-.032.038-.057.069-.088.1a.316.316,0,0,1-.107.075c.816,1.036,1.588,2.09,2.335,3.164A38.2,38.2,0,0,0,50.789,80.876ZM47.921,90.92c-.565-.929-1.143-1.846-1.752-2.75-1.443,1.519-2.95,2.982-4.45,4.463C43.759,91.949,45.83,91.4,47.921,90.92Zm-4.733,8.072q2.23-3.06,4.5-6.083a58.518,58.518,0,0,0-7.72,2.342.854.854,0,0,1-.509.037l-.019.038A24.652,24.652,0,0,1,43.188,98.992Zm2.442-11.6q-.942-1.365-1.959-2.681-1.468,3.833-3,7.627C42.34,90.7,44.029,89.08,45.63,87.392Zm-6.541,17.3c1.174-1.645,2.347-3.283,3.534-4.922a28.226,28.226,0,0,0-3.038-3.138A32.475,32.475,0,0,1,39.089,104.692Zm-1.243,1.738a38.421,38.421,0,0,0,.854-9.3q-4.643,11.1-9.824,21.976C31.876,114.892,34.852,110.655,37.846,106.43Z"/><path d="M73.971,17.891c1.192.113,1.921.251,1.921.39s-.735.257-1.94.326c-1,.063-2.323.069-3.76.207.213.283.427.515.628.779l.91,1.192-1.381-.32c-1.638-.383-2.994-.81-3.961-1.086-1-.257-1.607-.439-1.588-.571s.646-.176,1.682-.094c.735.075,1.651.245,2.662.452,0-.007-.007-.013-.013-.019-.107-.157-.213-.308-.314-.458l-.5-.722.854-.1A21.449,21.449,0,0,1,73.971,17.891Z"/><path d="M73.224,9.392c.163.232-2.216,2.2-5.355,4.413l-.552.389-.245-.659L67,13.322A9.989,9.989,0,0,0,66.47,12.1c-1.25,2.04-2.216,3.352-2.4,3.257-.214-.113.653-1.989,1.952-4.463l.37-.7.484.628a7.322,7.322,0,0,1,.947,1.726C70.719,10.547,73.067,9.166,73.224,9.392Z"/><path d="M71.322,28.606c.74,1.143,1.13,1.884,1.01,1.971s-.721-.5-1.6-1.506a49.638,49.638,0,0,1-3.34-4.086c-.232-.352-.458-.691-.678-1.03a.227.227,0,0,0-.031.05c-.069.107-.138.207-.207.308-.044.094-.088.188-.138.276l-.446.816-.383-.7a11.546,11.546,0,0,1-.973-2.592c-.182-.634-.245-1.017-.15-1.055s.32.27.64.841c.238.415.5.979.828,1.588a3.37,3.37,0,0,0,.346-.652l.307-1,.609.892c.364.521.747,1.073,1.136,1.644C69.439,26.008,70.569,27.483,71.322,28.606Z"/><path d="M61.078,9.185l.182,1.306-1.03-.867A1.881,1.881,0,0,0,60,9.48c.521,3.007.59,5.248.358,5.3-.3.063-.9-2.812-1.614-6.252l-.276-1.362,1.168.86.094.069a1.862,1.862,0,0,0,.232.163c-.182-2.486-.019-4.237.189-4.256C60.425,3.981,60.67,6.247,61.078,9.185Z"/><path d="M53.438,10.478c2.574,2.191,4.783,3.729,4.614,3.986-.132.22-2.975-1.142-5.926-3.722l-.025-.019-.634-.534.835-.364c.226-.1.446-.194.665-.288-2.065-1.168-3.433-2.11-3.333-2.292.113-.213,2.1.616,4.746,1.909l.929.458-1.03.477c-.238.107-.483.226-.734.339A.525.525,0,0,0,53.438,10.478Z"/><path d="M56.8,19.436c.094.075-.164.6-.641,1.45-.458.86-1.073,2.1-1.983,3.5l-.528.8-.351-.929a17.5,17.5,0,0,0-.816-1.939,34.5,34.5,0,0,0-3.139,3.791c-.91,1.174-1.588,1.777-1.7,1.7S48,26.93,48.73,25.688a18.21,18.21,0,0,1,3.547-4.627l.471-.4.307.521.095.163A8.821,8.821,0,0,1,53.922,23c.665-.961,1.23-1.833,1.713-2.448C56.276,19.768,56.715,19.36,56.8,19.436Z"/><path d="M56.276,16.454c-.007.144-.7.257-1.8.395-1.1.164-2.624.415-4.306.8l-.615.138-.013-.791c0-.113.025-.2.025-.333-.006-.157-.031-.339-.056-.546-2.768.659-4.84.992-4.9.753s2.209-1.067,5.26-1.914l.659-.182-.013.74c-.006.226.057.546.095.967a19.357,19.357,0,0,1,3.816-.351C55.579,16.178,56.276,16.322,56.276,16.454Z"/></g><text x="0" y="143" fill="#000000" font-size="5px" font-weight="bold" font-family="'Helvetica Neue', Helvetica, Arial-Unicode, Arial, Sans-serif">Created by Hey Rabbit</text><text x="0" y="148" fill="#000000" font-size="5px" font-weight="bold" font-family="'Helvetica Neue', Helvetica, Arial-Unicode, Arial, Sans-serif">from the Noun Project</text></svg>