<svg xmlns="http://www.w3.org/2000/svg" xmlns:xlink="http://www.w3.org/1999/xlink" version="1.1" x="0px" y="0px" viewBox="0 0 100 125" enable-background="new 0 0 100 100" xml:space="preserve"><g><path fill="#000000" d="M91.144,44.109c-1.399-1.772-2.797-3.636-4.196-5.408c-2.704-3.357-5.594-6.527-8.858-9.417   c-1.958-1.772-4.009-3.357-6.247-4.755c-2.611-1.585-5.315-2.704-8.485-2.797c-2.331-0.093-4.476,0.186-6.62,1.026   c-1.305,0.559-2.518,1.212-3.823,1.865c-0.653,0.373-1.305,0.559-2.051,0.559s-1.399-0.28-2.051-0.653   c-0.932-0.466-1.772-1.026-2.704-1.585c-1.678-0.932-3.357-1.678-5.315-1.865c-0.932-0.093-1.865-0.093-2.704,0.186   c-0.653,0.28-1.305,0.559-1.958,0.932c-2.238,1.305-4.382,2.984-6.434,4.569c-2.704,2.145-5.315,4.289-7.832,6.527   c-3.73,3.263-7.366,6.62-11.096,9.884c-0.839,0.746-1.678,1.492-2.518,2.331C7.6,46.067,6.948,46.72,6.388,47.279   c-1.212,1.119-1.119,2.984,0.186,4.009c0.28,0.186,0.466,0.373,0.746,0.559c1.958,1.399,3.916,2.984,5.781,4.662   c1.119,1.026,2.145,2.238,3.077,3.45c1.305,1.772,2.797,3.543,4.382,5.035c1.399,1.305,2.89,2.424,4.569,3.17   c1.585,0.746,3.263,1.119,5.035,1.119c1.585,0,3.077-0.373,4.476-1.026c1.958-0.839,3.916-1.865,5.874-2.797   c2.611-1.399,5.315-2.704,7.925-4.103c4.569-2.331,9.231-4.662,13.986-6.713c5.035-2.145,10.163-4.103,15.571-5.408   c3.077-0.746,6.247-1.212,9.697-1.212c0.373,0,0.932,0,1.399,0.093c0.559,0,1.026-0.093,1.492-0.466   C91.704,47.186,92.263,45.601,91.144,44.109z M40.794,48.585c-2.145,1.026-4.382,1.865-6.713,2.518   c-1.305,0.373-2.611,0.559-4.009,0.653c-1.772,0.093-3.45-0.28-5.035-0.932c-0.746-0.28-1.492-0.653-2.331-1.026   c0.186-0.839,1.026-1.492,1.865-1.678c0.186,0,0.373,0,0.559,0c2.051,0,4.103,0,6.154,0c0.839,0,1.585,0.373,2.051,1.119   c0.186,0.28,0.373,0.466,0.559,0.746c0.186-0.28,0.28-0.466,0.466-0.653c0.466-0.746,1.212-1.212,2.145-1.212   c1.678,0,3.357,0,5.128,0h0.093C41.354,48.305,41.074,48.398,40.794,48.585z M45.736,46.16c-0.559,0.28-1.119,0.559-1.678,0.839   c-0.093,0-0.186,0-0.28,0c-0.373-0.093-0.746-0.186-1.212-0.186c-2.051,0-4.196,0-6.247,0c-0.932,0-1.772,0.28-2.518,0.932   c0,0-0.093,0-0.093,0.093c-0.093-0.093-0.186-0.186-0.28-0.186c-0.653-0.466-1.305-0.746-2.145-0.746c-2.145,0-4.382,0-6.527,0   c-1.492,0-2.518,0.746-3.17,2.051c0,0.093-0.093,0.093-0.093,0.186c-0.839-0.559-1.678-1.119-2.518-1.678   c0.28-0.186,0.559-0.373,0.746-0.559c2.424-1.678,4.942-3.357,7.366-5.035c0,0.28,0.093,0.746,0.186,0.932   c0.373,1.212,1.119,1.958,2.331,2.518c0.466,0.186,1.026,0.28,1.585,0.28c1.585,0,3.17,0.093,4.849,0.093   c0.932,0,1.678-0.28,2.424-0.932c0,0,0.093,0,0.093-0.093c0.466,0.466,1.119,0.746,1.772,0.932c0.186,0,0.373,0.093,0.559,0.093   c1.772,0,3.636,0,5.408,0c0.093,0,0.186,0,0.186,0C46.202,45.881,45.922,46.067,45.736,46.16z M76.599,43.27   c-0.186-0.093-0.466-0.093-0.653-0.186c-2.051-0.559-4.196-1.026-6.34-1.492c-1.678-0.28-3.357-0.559-4.942-0.746   c-0.746-0.093-1.492-0.186-2.331-0.186h-1.399c-0.093,0.559-0.28,1.026-0.466,1.585c-0.186,0.653-0.466,1.212-0.932,1.678   c-0.28,0.373-0.746,0.559-1.212,0.559c-1.958,0-3.916,0-5.874,0c-0.932,0-1.678-0.373-2.238-1.119   c-0.093-0.186-0.28-0.373-0.466-0.653c-0.186,0.186-0.28,0.373-0.373,0.559c-0.559,0.839-1.305,1.212-2.331,1.212   c-1.958,0-4.009,0-5.967,0c-0.932,0-1.772-0.373-2.238-1.212c-0.093-0.186-0.28-0.466-0.466-0.653   c-0.186,0.28-0.373,0.466-0.466,0.746c-0.466,0.746-1.212,1.119-2.145,1.119c-1.585,0-3.077-0.093-4.662-0.093   c-1.026,0-1.772-0.373-2.424-1.212c-0.186-0.28-0.466-1.585-0.466-2.051c0.28-0.186,0.559-0.373,0.839-0.559   c2.89-1.958,5.781-3.73,8.858-5.501c0.839-0.466,1.585-0.839,2.424-1.305c1.119-0.559,2.331-0.653,3.543-0.373   c0.839,0.186,1.678,0.559,2.518,0.932c0.466,0.186,0.932,0.466,1.492,0.653c0.653,0.28,1.305,0.559,1.958,0.466   c0.559,0,1.026-0.093,1.585-0.28c1.026-0.28,1.958-0.653,2.984-0.932c0.932-0.28,1.865-0.559,2.797-0.653   c0.839-0.093,1.678,0,2.424,0.28c1.492,0.559,2.89,1.305,4.289,1.958c2.89,1.492,5.781,3.17,8.578,4.755   c1.305,0.746,2.611,1.585,3.916,2.331C76.505,43.177,76.505,43.27,76.599,43.27L76.599,43.27z"/></g><text x="0" y="115" fill="#000000" font-size="5px" font-weight="bold" font-family="'Helvetica Neue', Helvetica, Arial-Unicode, Arial, Sans-serif">Created by Gorreá</text><text x="0" y="120" fill="#000000" font-size="5px" font-weight="bold" font-family="'Helvetica Neue', Helvetica, Arial-Unicode, Arial, Sans-serif">from the Noun Project</text></svg>