<svg xmlns="http://www.w3.org/2000/svg" version="1.1" viewBox="-5.0 -10.0 110.0 135.0">
 <path d="m31.871 19.855c-0.74219-0.71484-1.1055-1.4141-1.0781-2.0625 0.054687-0.99609 0.96875-1.75 0.96875-1.75 0.57812-0.45703 0.6875-1.3047 0.23047-1.8984-0.45703-0.57812-1.3047-0.6875-1.8984-0.23047-0.1875 0.14844-1.8594 1.5234-1.9805 3.7031-0.082031 1.4688 0.55078 2.8672 1.8711 4.1641 0.64844 0.63281 0.94141 1.1992 0.875 1.6836-0.10938 0.78125-1.0781 1.4805-1.4141 1.6562-0.64844 0.36328-0.89062 1.1719-0.53906 1.8203 0.24219 0.45703 0.71484 0.71484 1.1836 0.71484 0.21484 0 0.42969-0.054688 0.64844-0.16016 0.24219-0.13281 2.4766-1.3867 2.7891-3.6367 0.13281-0.96094-0.039063-2.4258-1.6562-4.0039zm9.5742-1.6172c-0.74219-0.72656-1.0898-1.4297-1.0625-2.0742 0.039063-0.99609 0.95703-1.75 0.95703-1.75 0.59375-0.45703 0.6875-1.293 0.23047-1.8867-0.45703-0.59375-1.3047-0.6875-1.8867-0.23047-0.1875 0.14844-1.8711 1.5078-1.9922 3.7031-0.082031 1.4688 0.55078 2.8672 1.8867 4.1602 0.64844 0.63281 0.94141 1.1992 0.875 1.6836-0.10938 0.76953-1.0781 1.4688-1.4141 1.6562-0.64844 0.35156-0.89062 1.1602-0.53906 1.8203 0.24219 0.44531 0.69922 0.71484 1.1836 0.71484 0.21484 0 0.42969-0.054687 0.63281-0.16016 0.25781-0.13281 2.4766-1.4023 2.8008-3.6484 0.13281-0.94141-0.054688-2.4102-1.6719-3.9883zm9.5938-1.0742c-0.74219-0.71484-1.1055-1.4141-1.0781-2.0625 0.054687-0.99609 0.96875-1.75 0.96875-1.75 0.57812-0.45703 0.6875-1.3047 0.23047-1.8984-0.45703-0.57812-1.3047-0.6875-1.8984-0.23047-0.1875 0.14844-1.8594 1.5234-1.9805 3.7031-0.082031 1.4688 0.55078 2.8672 1.8711 4.1641 0.64844 0.63281 0.94141 1.1992 0.875 1.6836-0.10938 0.78125-1.0781 1.4805-1.4141 1.6562-0.64844 0.36328-0.89062 1.1719-0.53906 1.8203 0.24219 0.45703 0.71484 0.71484 1.1836 0.71484 0.21484 0 0.42969-0.054688 0.64844-0.16016 0.24219-0.13281 2.4766-1.3867 2.7891-3.6367 0.13281-0.96094-0.042968-2.4297-1.6562-4.0039zm9.5742 1.0742c-0.74219-0.72656-1.0898-1.4297-1.0625-2.0742 0.039063-0.99609 0.95703-1.75 0.95703-1.75 0.59375-0.45703 0.6875-1.293 0.23047-1.8867s-1.3047-0.6875-1.8867-0.23047c-0.1875 0.14844-1.8711 1.5078-1.9922 3.7031-0.082031 1.4688 0.55078 2.8672 1.8867 4.1602 0.64844 0.63281 0.94141 1.1992 0.875 1.6836-0.10938 0.76953-1.0781 1.4688-1.4141 1.6562-0.64844 0.35156-0.89062 1.1602-0.53906 1.8203 0.24219 0.44531 0.69922 0.71484 1.1836 0.71484 0.21484 0 0.42969-0.054687 0.63281-0.16016 0.25781-0.13281 2.4766-1.4023 2.8008-3.6484 0.13281-0.94141-0.054687-2.4102-1.6719-3.9883zm9.5898 1.6172c-0.74219-0.71484-1.1055-1.4141-1.0781-2.0625 0.054688-0.99609 0.96875-1.75 0.96875-1.75 0.57812-0.45703 0.6875-1.3047 0.23047-1.8984-0.45703-0.57812-1.3047-0.6875-1.8867-0.23047-0.20312 0.14844-1.8711 1.5234-1.9922 3.7031-0.082031 1.4688 0.55078 2.8672 1.8711 4.1641 0.64844 0.63281 0.94141 1.1992 0.875 1.6836-0.10938 0.78125-1.0781 1.4805-1.4141 1.6562-0.64844 0.36328-0.89062 1.1719-0.53906 1.8203 0.24219 0.45703 0.71484 0.71484 1.1836 0.71484 0.21484 0 0.44531-0.054688 0.64844-0.16016 0.24219-0.13281 2.4766-1.3867 2.7891-3.6367 0.13672-0.96094-0.039063-2.4258-1.6562-4.0039zm-20.203 16.785c-11.312 0-18.074 3.0156-20.352 4.7695 2.5742 2.5469 4.0391 6.0742 4.0391 9.75v28.473h32.625v-28.473c0-3.6758 1.4688-7.207 4.0391-9.75-2.2773-1.7539-9.0391-4.7695-20.352-4.7695zm2.3555 9.7383c0.47266-0.57812 1.332-0.66016 1.8984-0.1875 0.56641 0.48438 0.64844 1.332 0.17578 1.8984l-13.887 16.742c-0.26953 0.32422-0.66016 0.48438-1.0352 0.48438-0.30859 0-0.62109-0.09375-0.86328-0.30859-0.57812-0.47266-0.66016-1.3203-0.17578-1.8984zm-14.746 9.0781 7.7305-9.3086c0.47266-0.57813 1.332-0.66016 1.8984-0.17578 0.56641 0.47266 0.64844 1.3203 0.17578 1.8984l-7.7305 9.3086c-0.26953 0.32422-0.64844 0.48437-1.0391 0.48437-0.29688 0-0.60547-0.09375-0.86328-0.30859-0.5625-0.47266-0.64453-1.3203-0.17188-1.8984zm11.059 16.164c-0.29688 0-0.60547-0.09375-0.84766-0.30859-0.57812-0.47266-0.66016-1.3203-0.17578-1.8867l11.289-13.617c0.47266-0.56641 1.332-0.64844 1.8984-0.17578 0.56641 0.47266 0.64844 1.332 0.17578 1.8984l-11.305 13.602c-0.25391 0.32422-0.64453 0.48828-1.0352 0.48828zm13.238-6.4922-5.2266 6.2891c-0.26953 0.32422-0.64844 0.48438-1.0391 0.48438-0.30859 0-0.60547-0.09375-0.86328-0.30859-0.56641-0.47266-0.64844-1.3203-0.17578-1.8984l5.2266-6.2891c0.47266-0.57812 1.332-0.66016 1.8984-0.17578 0.57031 0.46875 0.65234 1.3164 0.17969 1.8984zm0.48438-17.941-21.941 26.426c-0.26953 0.32422-0.64844 0.48438-1.0352 0.48438-0.29687 0-0.60547-0.09375-0.86328-0.30859-0.56641-0.47266-0.64844-1.3203-0.17578-1.8984l21.941-26.426c0.47266-0.56641 1.3203-0.64844 1.8984-0.17578 0.56641 0.46875 0.64844 1.3164 0.17578 1.8984zm-12.391-10.547c-11.312 0-18.074 3.0156-20.352 4.7695 2.5742 2.5469 4.0391 6.0742 4.0391 9.75v28.473h32.625v-28.473c0-3.6758 1.4688-7.207 4.0391-9.75-2.2773-1.7539-9.0391-4.7695-20.352-4.7695zm2.3555 9.7383c0.47266-0.57812 1.332-0.66016 1.8984-0.1875 0.56641 0.48438 0.64844 1.332 0.17578 1.8984l-13.887 16.742c-0.26953 0.32422-0.66016 0.48438-1.0352 0.48438-0.30859 0-0.62109-0.09375-0.86328-0.30859-0.57812-0.47266-0.66016-1.3203-0.17578-1.8984zm-14.746 9.0781 7.7305-9.3086c0.47266-0.57813 1.332-0.66016 1.8984-0.17578 0.56641 0.47266 0.64844 1.3203 0.17578 1.8984l-7.7305 9.3086c-0.26953 0.32422-0.64844 0.48437-1.0391 0.48437-0.29688 0-0.60547-0.09375-0.86328-0.30859-0.5625-0.47266-0.64453-1.3203-0.17188-1.8984zm11.059 16.164c-0.29688 0-0.60547-0.09375-0.84766-0.30859-0.57812-0.47266-0.66016-1.3203-0.17578-1.8867l11.289-13.617c0.47266-0.56641 1.332-0.64844 1.8984-0.17578 0.56641 0.47266 0.64844 1.332 0.17578 1.8984l-11.305 13.602c-0.25391 0.32422-0.64453 0.48828-1.0352 0.48828zm13.238-6.4922-5.2266 6.2891c-0.26953 0.32422-0.64844 0.48438-1.0391 0.48438-0.30859 0-0.60547-0.09375-0.86328-0.30859-0.56641-0.47266-0.64844-1.3203-0.17578-1.8984l5.2266-6.2891c0.47266-0.57812 1.332-0.66016 1.8984-0.17578 0.57031 0.46875 0.65234 1.3164 0.17969 1.8984zm0.48438-17.941-21.941 26.426c-0.26953 0.32422-0.64844 0.48438-1.0352 0.48438-0.29687 0-0.60547-0.09375-0.86328-0.30859-0.56641-0.47266-0.64844-1.3203-0.17578-1.8984l21.941-26.426c0.47266-0.56641 1.3203-0.64844 1.8984-0.17578 0.56641 0.46875 0.64844 1.3164 0.17578 1.8984zm-12.391-19.977c-17.051 0-30.414 6.2383-30.414 14.211 0 2.3047 1.1445 4.5781 3.3125 6.5742 0.86328 0.78125 1.3594 1.9414 1.3594 3.1641v33.109c0 2.6406 2.1406 4.7969 4.7969 4.7969h41.891c2.6523 0 4.7969-2.1562 4.7969-4.7969l-0.003907-33.109c0-1.2266 0.5-2.3828 1.3594-3.1641 2.168-1.9922 3.3125-4.2695 3.3125-6.5742 0.003906-7.9766-13.359-14.211-30.41-14.211zm23.316 14.977c-0.1875 0.26953-0.44531 0.55078-0.76953 0.83594-2.25 2.0625-3.543 5.0234-3.543 8.1367v29.82c0 0.74219-0.59375 1.3477-1.3477 1.3477h-35.316c-0.75391 0-1.3477-0.60547-1.3477-1.3477l0.003906-29.82c0-3.1133-1.293-6.0742-3.5547-8.1367-0.30859-0.28125-0.56641-0.56641-0.75391-0.83594-0.33594-0.45703-0.35156-1.0625-0.039062-1.5352 1.8398-2.7891 10.301-6.707 23.352-6.707 13.039 0 21.512 3.918 23.355 6.707 0.30859 0.47266 0.29688 1.0781-0.039063 1.5352zm-43.668-0.78125c2.5742 2.5469 4.0391 6.0742 4.0391 9.75v28.473h32.625v-28.469c0-3.6758 1.4688-7.207 4.0391-9.75-2.2773-1.7539-9.0391-4.7695-20.352-4.7695s-18.074 3.0156-20.352 4.7656zm7.9609 14.051 7.7305-9.3086c0.47266-0.57813 1.332-0.66016 1.8984-0.17578 0.56641 0.47266 0.64844 1.3203 0.17578 1.8984l-7.7305 9.3086c-0.26953 0.32422-0.64844 0.48437-1.0391 0.48437-0.29688 0-0.60547-0.09375-0.86328-0.30859-0.5625-0.47266-0.64453-1.3203-0.17188-1.8984zm11.059 16.164c-0.29688 0-0.60547-0.09375-0.84766-0.30859-0.57812-0.47266-0.66016-1.3203-0.17578-1.8867l11.289-13.617c0.47266-0.56641 1.332-0.64844 1.8984-0.17578 0.56641 0.47266 0.64844 1.332 0.17578 1.8984l-11.305 13.602c-0.25391 0.32422-0.64453 0.48828-1.0352 0.48828zm13.238-6.4922-5.2266 6.2891c-0.26953 0.32422-0.64844 0.48438-1.0391 0.48438-0.30859 0-0.60547-0.09375-0.86328-0.30859-0.56641-0.47266-0.64844-1.3203-0.17578-1.8984l5.2266-6.2891c0.47266-0.57812 1.332-0.66016 1.8984-0.17578 0.57031 0.46875 0.65234 1.3164 0.17969 1.8984zm0.3125-19.844c0.56641 0.47266 0.64844 1.3203 0.17578 1.8984l-21.945 26.43c-0.26953 0.32422-0.64844 0.48438-1.0352 0.48438-0.29687 0-0.60547-0.09375-0.86328-0.30859-0.56641-0.47266-0.64844-1.3203-0.17578-1.8984l21.941-26.426c0.47266-0.57031 1.3203-0.64844 1.9023-0.17969zm-7.9609 0.90234c0.56641 0.48438 0.64844 1.332 0.17578 1.8984l-13.891 16.746c-0.26953 0.32422-0.66016 0.48438-1.0352 0.48438-0.30859 0-0.62109-0.09375-0.86328-0.30859-0.57812-0.47266-0.66016-1.3203-0.17578-1.8984l13.887-16.73c0.47266-0.58203 1.3359-0.66016 1.9023-0.19141z"/>
<text x="0.0" y="117.5" font-size="5.0" font-weight="bold" font-family="Arbeit Regular, Helvetica, Arial-Unicode, Arial, Sans-serif" fill="#000000">Created by lubis leo</text><text x="0.0" y="122.5" font-size="5.0" font-weight="bold" font-family="Arbeit Regular, Helvetica, Arial-Unicode, Arial, Sans-serif" fill="#000000">from Noun Project</text></svg>