<svg xmlns="http://www.w3.org/2000/svg" xmlns:xlink="http://www.w3.org/1999/xlink" version="1.1" x="0px" y="0px" viewBox="0 0 100 125" enable-background="new 0 0 100 100" xml:space="preserve"><polyline fill="none" points="39.8,32.2 39.8,32.2 29,33.5 "/><path fill="#000000" d="M94.5,30.8c-0.2-0.2-0.4-0.3-0.7-0.3l-13.4,0.7c-0.1,0-0.2,0-0.4,0L64.3,10.9c-0.9-1.2-2.3-1.8-3.8-1.8  c-1.6,0-3,0.7-3.1,0.7l-28,14.8c-0.7,0.3-1.5,0.5-2.4,0.7c0-0.3,0-0.5-0.2-0.7c-0.2-0.2-0.5-0.3-0.7-0.3l-1.7,0  c-0.4,0-0.8,0.3-0.9,0.7l-0.2,0.8c-0.8,0.1-1.6,0.1-2.3,0.1c-2,0-3.1-0.2-3.5-0.4c-0.2-0.1-0.3-0.1-0.5-0.2c0.2-0.1,0.3-0.3,0.3-0.6  c0-0.3,0-0.5-0.2-0.7l-0.7-0.8c-0.3-0.4-0.9-0.5-1.3-0.2l-0.9,0.6c-1.3-1.1-1.8-2.1-2-2.7c0-0.1-0.1-0.2-0.1-0.3  c0.4-0.6,0.3-1.2,0.2-1.5c-0.3-0.8-1.2-1.2-2.3-1.2c-1.1,0-2.7,0.5-3.3,1.8c-1,2.2-0.4,6-0.3,6.4c0,0,0,0.1,0,0.1  c0.2,0.6,1.7,5.9,4.8,7.3c1.4,0.6,2.8,0.8,4.1,1c0.9,0.1,1.6,0.2,2.2,0.4c-0.6,0.2-1.5,0.4-2.3,0.5c-1.4,0.3-3.1,0.7-5.1,1.2  c-0.4,0.1-0.7,0.5-0.7,0.9l0,1.5c0,0.3,0.1,0.5,0.3,0.7C9.8,40,10,40,10.2,40c0,0,0.1,0,0.1,0l11.6-1.8c0.3,0,0.6-0.1,0.9,0l0.6,0.1  c0.6,0.5,1.1,0.8,1.9,0.8c0.6,0,1.2-0.2,1.9-0.5c0.9-0.2,1.9-0.5,2.6-1.3c0.6-0.6,0.8-1.4,0.8-2.3c0.4-0.6,1-1.1,1.6-1.5  c1.7-1,2.3-1.2,2.5-1.3c4.5-1.1,8.1-1.8,10-1.9c0.1,0,0.1,0,0.2,0c-1.3,1.2-1.7,2.9-1.8,3l-8,30.7c-0.2,0.6-0.6,1.3-1,2c0,0,0,0,0,0  c-0.3,0-0.6,0.1-0.7,0.3l-1.1,1.3c-0.3,0.3-0.3,0.8-0.1,1.2l0.1,0.1C30.8,71,29,72.8,28,73.3c0-0.1-0.1-0.1-0.1-0.2  c-0.2-0.2-0.4-0.3-0.7-0.3l-1.1-0.1c-0.5,0-0.9,0.3-1,0.8l-0.1,0.8c-0.7,0.2-1.4,0.2-2,0.2c-0.7,0-1.3-0.1-1.7-0.2  C21,73.1,20,73,19.7,73c-1,0-1.8,0.8-2.3,1.5c-0.7,1-0.8,2.2-0.4,3.1c1,2.2,4.1,4.4,4.5,4.6c0,0,0.1,0,0.1,0.1  c0.1,0.1,3.5,1.7,6.4,1.8c0,0,0,0,0,0c0.8,0,1.6-0.1,2.2-0.4c1.5-0.6,2.5-1.5,3.5-2.3c0.7-0.6,1.3-1.1,1.8-1.3  c-0.3,0.5-0.7,1.3-1.2,2.1c-0.7,1.2-1.6,2.7-2.5,4.6c-0.2,0.4-0.1,0.8,0.2,1.1l1.1,1c0.2,0.2,0.4,0.2,0.6,0.2c0,0,0.1,0,0.1,0  c0.3,0,0.5-0.2,0.7-0.4l6.5-9.8c0.2-0.3,0.4-0.5,0.6-0.7l2.3-1.9c0,0,0,0,0.1-0.1c0.2-0.2,1.8-1.9,1.7-3.9c-0.1-0.9-0.5-1.8-1.4-2.4  c-0.2-0.1-0.4-0.2-0.6-0.3c-0.1-0.6-0.1-1.2,0-1.8c0.4-1.9,0.6-2.5,0.7-2.7c2.2-4.1,4.2-7.2,5.3-8.7c1.5-1.8,5.5-8,6.7-11.3  c1.9,1.1,6,3.3,11.5,5.1c2,4.9,4.8,8,6.6,9.7c0,0,0,0,0,0c0.6,0.6,1.2,1.2,1.8,1.4c0.6,0.4,7.3,4.4,12.6,4.4c2.5,0,4.4-0.8,5.6-2.5  c0.1-0.2,0.2-0.4,0.2-0.5V31.5C94.8,31.2,94.7,31,94.5,30.8z M74.4,27c-0.3,0.2-0.7,0.5-1.1,0.8l-3.6-1.4l1.4-3.5L74.4,27z   M59.3,40.3l2.3-1c0.6,1.3,1.3,2.7,2.1,4.1l-2.4,1.1L59.3,40.3z M50.5,52.3l-0.3-0.7l1-0.5C51,51.5,50.7,51.9,50.5,52.3z M52.9,48.3  l-3.5,1.6l-1.9-4.2l4.2-1.9l1.7,3.7C53.2,47.7,53.1,48,52.9,48.3z M39.1,56.7l3.5-1.6l1.9,4.2l-4.2,1.9l-1.5-3.4L39.1,56.7z   M41.6,48.4l4.2-1.9l1.9,4.2l-4.2,1.9L41.6,48.4z M61.3,25l-1.4,3.5c-0.4-1.5-0.5-2.4-0.5-2.4c-0.1-0.3-0.3-0.6-0.6-0.7  c-0.1,0-0.2-0.1-0.3-0.1c-0.2,0-0.4,0.1-0.6,0.2c-0.4,0.3-1.1,0.6-2.1,0.9l1.3-3.1L61.3,25z M57.7,21.5l1.7-4.3l4.3,1.7L62,23.2  L57.7,21.5z M57.7,27.6c0.1,0.6,0.3,1.3,0.5,2.1l-6.3-0.5C54.1,28.8,56.3,28.2,57.7,27.6z M58.2,31.6l-2.3,1l-0.6-1.3L58.2,31.6z   M53.5,26.8L49.2,25l1.7-4.3l4.3,1.7L53.5,26.8z M50.5,27.6c-0.9,0.2-1.7,0.3-2.5,0.4l0.5-1.3L50.5,27.6z M48.7,30.9l4.4,0.4l1,2.2  l-4.2,1.9L48,31.2L48.7,30.9z M50.9,42.1L46.7,44l-1.9-4.2l4.2-1.9L50.9,42.1z M52.6,41.3l-1.9-4.2l4.2-1.9l1.9,4.2L52.6,41.3z   M56.6,34.4l2.6-1.2c0.4,1.3,1,2.8,1.6,4.3l-2.3,1L56.6,34.4z M63.1,37.7l-0.1-0.1c-0.1-0.3-0.3-0.6-0.4-0.9c-0.4-1-0.8-2.1-1.1-3  c-0.2-0.7-0.4-1.3-0.6-1.9c0,0,0-0.1,0-0.1l2.2,0.9l1.8,0.7l-0.7,1.7L63.1,37.7z M61.3,29.9l1.7-4.3l4.3,1.7l-1.7,4.3L61.3,29.9z   M66.2,35.1l0.4-1l1,0.4l1.1,0.5c-1.3,0.5-2.4,0.9-3.2,1.7L66.2,35.1z M68.1,32.7l-0.8-0.3l1.7-4.3l2.8,1.1c-0.7,0.9-1.4,2-1.7,3.3  c-0.1,0.3-0.1,0.6-0.2,0.9L68.1,32.7z M66.6,16.9l1.3,1.7l-1.7-0.7L66.6,16.9z M69.7,21.4L68,25.7l-4.3-1.7l1.7-4.3L69.7,21.4z   M61.8,11.3c0.4,0.2,0.7,0.5,1,0.8l2.4,3.1l-0.8,2l-4.3-1.7L61.8,11.3z M58.3,11.5c0,0,0.7-0.4,1.6-0.5l-1.5,3.7l-3.6-1.5L58.3,11.5  z M53.4,14.7l4.3,1.7L56,20.8L51.7,19L53.4,14.7z M51.2,15.2l-1.3,3.1l-2.6-1.1L51.2,15.2z M44.8,18.6l0.4-0.2l4,1.6l-1.7,4.3  l-4.3-1.7L44.8,18.6z M42.3,20l-0.8,1.9l-1.6-0.7L42.3,20z M29.8,33.2c-0.2-0.1-0.3-0.2-0.5-0.3L29.8,33.2  C29.8,33.2,29.8,33.2,29.8,33.2z M11.7,23.8l-0.9-0.4c0-0.3,0-0.6,0-1C11,22.9,11.3,23.3,11.7,23.8z M25.9,32.5c-0.1,0-0.1,0-0.2,0  l0.2-0.9l3,1.2c0,0,0.1,0,0.1,0l0.1,0C28.3,32.6,27.2,32.5,25.9,32.5z M22.9,27.8l-0.1,0.5l-0.3-0.1c0,0-0.1,0-0.1,0l-0.8-0.3  C22,27.8,22.4,27.8,22.9,27.8z M22.3,30.2L22,31.9L18.7,31c0,0,0,0,0,0l0.8-2L22.3,30.2z M17.8,28.3l-1,2.4  c-0.6-0.1-1.4-0.3-2.2-0.5c-1-0.2-1.8-1.2-1.9-1.6c0.2-0.3,0.9-0.9,1.8-1.6L17.8,28.3z M31.9,28.2c0,0,0,0.1,0,0.1l-1.3,3.2  l-4.3-1.7l1-2.5c1.1-0.2,2-0.5,2.9-0.9l1.5,0.6c0,0,0.1,0,0.1,0l0.5,0.2L31.9,28.2z M33.3,24.7L33,25.5l-0.6-0.3L33.3,24.7z   M34.3,30.4c-0.4,0.1-0.9,0.3-1.6,0.7l1.3-3.2l4.1,1.7C36.6,29.9,35.2,30.2,34.3,30.4z M34.7,26.2l1.2-2.9l1.8-0.9l3.1,1.3L39,27.9  L34.7,26.2z M44.7,28.4c-0.9,0.1-2,0.2-3.3,0.4l-0.7-0.3l1.7-4.3l4.3,1.7l-0.9,2.3C45.4,28.4,45,28.4,44.7,28.4z M45,33.8  c0,0,0.2-0.8,0.8-1.6l0.5-0.2l1.9,4.2L44,38.1l-0.1-0.2L45,33.8z M43.2,40.8l1.8,4l-3.2,1.5L43.2,40.8z M40.6,50.7l1.2,2.6l-2.1,1  L40.6,50.7z M38,60.7l0.6,1.3l-1,0.5L38,60.7z M36.9,64.8l1.9-0.8c0,0,0.1,0,0.1-0.1l0.5-0.2l0.4,1c0,0,0,0.1,0.1,0.1l1.4,3.1  l-3.9,1.8l-1-1.4L35.8,67C36.3,66.3,36.6,65.5,36.9,64.8z M36.3,74.5l-2.8,1.8c0,0-0.1,0-0.1,0.1c0,0-0.1,0.1-0.4,0.3l-1.1-2.4  l3.2-1.4L36.3,74.5z M30.2,78.7c-0.4,0.3-1,0.5-1.6,0.5c-0.5,0-0.7-0.1-0.8-0.2c-0.1-0.4,0-1.6,0.1-3l2.4-1.1l1.3,2.8  C31.1,78.1,30.7,78.4,30.2,78.7z M24.3,77.7l0.1,0.2c-0.1,0-0.2-0.1-0.4-0.1L24.3,77.7z M41.8,69.7c0,0.1,0,0.2,0,0.2  c-1,0.5-1.9,1.4-2.6,2.2l-0.7-0.9l2.5-1.2c0,0,0.1,0,0.1-0.1L41.8,69.7z M33.5,70.5l0.5,0.7l-0.7,0.3c0,0-0.1,0-0.1,0.1l-1,0.5  C32.6,71.5,33.1,71,33.5,70.5z M22.1,76.6c-0.1-0.1-0.1-0.1-0.2-0.2c0.2,0,0.3,0,0.5,0.1L22.1,76.6z M42.8,64.2  c-0.2,0.3-0.3,0.8-0.5,1.4l-1.2-2.7l3.4-1.5C43.8,62.5,43.2,63.6,42.8,64.2z M48.3,55.3c-0.6,0.8-1.4,1.9-2.2,3.2l-1.9-4.2l4.2-1.9  l0.8,1.7C48.9,54.5,48.6,55,48.3,55.3z M56.4,42.9c-0.3-0.2-0.6-0.2-0.9-0.1C55.2,43,55,43.3,55,43.6c0,0.4-0.2,1-0.6,1.7l-1-2.3  l4.2-1.9l1.5,3.3C57.4,43.5,56.5,42.9,56.4,42.9z M62.4,46l2.2-1c0.5,0.8,1,1.7,1.6,2.5C64.8,47.1,63.6,46.5,62.4,46z M76.3,44.8  c-0.8,0.9-1.5,2-2.3,3.1c-0.4,0.6-0.7,1.1-1.1,1.7c-0.3,0.5-0.7,1.1-1,1.7c-0.2,0.4-0.5,0.9-0.7,1.3c-0.3-0.5-0.6-1.1-0.9-1.7  c-0.1-0.2-0.2-0.4-0.2-0.5c-0.2-0.4-0.4-0.8-0.5-1.3c0-0.1-0.1-0.2-0.1-0.2c-0.1-0.1-0.1-0.1-0.2-0.2c-0.2-0.3-0.4-0.6-0.6-0.8  c-0.3-0.4-0.5-0.7-0.8-1.1c-0.1-0.1-0.1-0.2-0.2-0.3c-0.2-0.3-0.4-0.6-0.6-1v0c-0.5-0.7-0.9-1.5-1.3-2.2c0-0.9,0-1.7,0.1-2.4  c0.1-0.6,0.1-1,0.3-1.4c0-0.2,0.1-0.3,0.2-0.4c0.6-1.4,1.8-1.8,3.5-2.4c0,0,0.1,0,0.1,0c0.2-0.1,0.4-0.1,0.6-0.2l0.1,0.2l1.4,1.5  l0.9,1l0.2,0.2l1.4,1.4l2.9,3C77,43.9,76.7,44.3,76.3,44.8z M78.6,42.1l-2.3-2.4l-1.4-1.4L73.7,37l-2.1-2.2c0-0.1,0-0.1,0-0.2  c0-0.3,0-0.7,0.1-1c0.1-0.5,0.2-0.9,0.3-1.3c0.2-0.6,0.5-1.2,0.9-1.7c0.9-1.2,2-1.9,2.6-2.3l0.2,0.3l0.1,0.1l1.8,2.4l0.5,0.6l0.8,1  c0,0,0,0,0,0l0,0c0,0,0.1,0.1,0.1,0.1c0,0,0.1,0.1,0.1,0.1c0.2,0.2,0.3,0.4,0.5,0.6c1.2,1.4,2.5,2.9,3.7,4.2  C82.4,38.6,80.7,40,78.6,42.1z"/><text x="0" y="115" fill="#000000" font-size="5px" font-weight="bold" font-family="'Helvetica Neue', Helvetica, Arial-Unicode, Arial, Sans-serif">Created by HeadsOfBirds</text><text x="0" y="120" fill="#000000" font-size="5px" font-weight="bold" font-family="'Helvetica Neue', Helvetica, Arial-Unicode, Arial, Sans-serif">from the Noun Project</text></svg>